# 3ds Max Wavefront OBJ Exporter v0.97b - (c)2007 guruware
# File Created: 24.02.2015 16:22:22

mtllib Palace_RicePaper_Wall.mtl

#
# object RicePaper_Wall_LP001
#

v  -50.000000 -99.999992 -2.551454
v  50.000000 -99.999992 -2.551454
v  -50.000000 100.000008 -2.551421
v  50.000000 100.000008 -2.551421
v  -50.000000 100.000008 2.448579
v  -50.000000 -99.999992 2.448546
v  50.000000 -99.999992 2.448546
v  50.000000 100.000008 2.448579
v  -50.000000 -49.999992 -2.551445
v  50.000000 -49.999992 -2.551445
v  -50.000000 -49.999992 2.448555
v  50.000000 -49.999992 2.448555
v  -46.390259 96.390266 2.448578
v  -46.390259 -46.390251 2.448555
v  46.390259 -46.390251 2.448555
v  46.390259 96.390266 2.448578
v  -46.390259 -46.390251 -2.551445
v  -46.390259 96.390266 -2.551422
v  46.390259 96.390266 -2.551422
v  46.390259 -46.390251 -2.551445
v  46.390259 -53.609734 -2.551446
v  46.390259 -96.390251 -2.551453
v  -46.390259 -96.390251 -2.551453
v  -46.390259 -53.609734 -2.551446
v  -46.390259 -96.390251 2.448547
v  46.390259 -96.390251 2.448547
v  46.390259 -53.609734 2.448554
v  -46.390259 -53.609734 2.448554
v  -46.390259 -96.390251 1.698547
v  46.390259 -96.390251 1.698547
v  46.390259 -53.609734 1.698554
v  -46.390259 -53.609734 1.698554
v  46.390259 -53.609734 -1.801446
v  46.390259 -96.390251 -1.801453
v  -46.390259 -96.390251 -1.801453
v  -46.390259 -53.609734 -1.801446
v  -46.390259 96.390266 1.198578
v  -46.390259 -46.390251 1.198555
v  46.390259 -46.390251 1.198555
v  46.390259 96.390266 1.198578
v  -46.390259 -46.390251 -1.301445
v  -46.390259 96.390266 -1.301422
v  46.390259 96.390266 -1.301422
v  46.390259 -46.390251 -1.301445
# 44 vertices

vn 0.000000 -0.000000 1.000000
vn 0.000000 -0.000000 1.000000
vn 0.000000 -0.000000 1.000000
vn 0.000000 -0.000000 1.000000
vn 0.000000 -0.000000 1.000000
vn 0.000000 -0.000000 1.000000
vn -1.000000 0.000000 -0.000000
vn -1.000000 0.000000 -0.000000
vn -1.000000 0.000000 -0.000000
vn -1.000000 0.000000 -0.000000
vn -1.000000 0.000000 -0.000000
vn -1.000000 0.000000 -0.000000
vn 1.000000 0.000000 -0.000000
vn 1.000000 0.000000 -0.000000
vn 1.000000 0.000000 -0.000000
vn 1.000000 0.000000 -0.000000
vn 1.000000 0.000000 -0.000000
vn 1.000000 0.000000 -0.000000
vn 0.000000 1.000000 0.000000
vn 0.000000 1.000000 0.000000
vn 0.000000 1.000000 0.000000
vn 0.000000 1.000000 0.000000
vn 0.000000 1.000000 0.000000
vn 0.000000 1.000000 0.000000
vn 0.000000 0.000000 -1.000000
vn 0.000000 0.000000 -1.000000
vn 0.000000 0.000000 -1.000000
vn 0.000000 0.000000 -1.000000
vn 0.000000 0.000000 -1.000000
vn 0.000000 0.000000 -1.000000
vn 0.000000 -0.000000 1.000000
vn 0.000000 -0.000000 1.000000
vn 0.000000 -0.000000 1.000000
vn 0.000000 -0.000000 1.000000
vn 0.000000 -0.000000 1.000000
vn 0.000000 -0.000000 1.000000
vn -1.000000 0.000000 -0.000000
vn -1.000000 0.000000 -0.000000
vn -1.000000 0.000000 -0.000000
vn -1.000000 0.000000 -0.000000
vn -1.000000 0.000000 -0.000000
vn -1.000000 0.000000 -0.000000
vn 1.000000 0.000000 -0.000000
vn 1.000000 0.000000 -0.000000
vn 1.000000 0.000000 -0.000000
vn 1.000000 0.000000 -0.000000
vn 1.000000 0.000000 -0.000000
vn 1.000000 0.000000 -0.000000
vn 0.000000 0.000000 -1.000000
vn 0.000000 0.000000 -1.000000
vn 0.000000 0.000000 -1.000000
vn 0.000000 0.000000 -1.000000
vn 0.000000 0.000000 -1.000000
vn 0.000000 0.000000 -1.000000
vn 0.000000 -0.000000 1.000000
vn 0.000000 -0.000000 1.000000
vn 0.000000 -0.000000 1.000000
vn 0.000000 -0.000000 1.000000
vn 0.000000 -0.000000 1.000000
vn 0.000000 -0.000000 1.000000
vn 0.000000 -0.000000 1.000000
vn 0.000000 -0.000000 1.000000
vn 0.000000 -0.000000 1.000000
vn 0.000000 -0.000000 1.000000
vn 0.000000 -0.000000 1.000000
vn 0.000000 -0.000000 1.000000
vn 0.000000 -0.000000 1.000000
vn 0.000000 -0.000000 1.000000
vn 0.000000 -0.000000 1.000000
vn 0.000000 -0.000000 1.000000
vn 0.000000 -0.000000 1.000000
vn 0.000000 -0.000000 1.000000
vn 0.000000 0.000000 -1.000000
vn 0.000000 0.000000 -1.000000
vn 0.000000 0.000000 -1.000000
vn 0.000000 0.000000 -1.000000
vn 0.000000 0.000000 -1.000000
vn 0.000000 0.000000 -1.000000
vn 0.000000 0.000000 -1.000000
vn 0.000000 0.000000 -1.000000
vn 0.000000 0.000000 -1.000000
vn 0.000000 0.000000 -1.000000
vn 0.000000 0.000000 -1.000000
vn 0.000000 0.000000 -1.000000
vn 0.000000 0.000000 -1.000000
vn 0.000000 0.000000 -1.000000
vn 0.000000 0.000000 -1.000000
vn 0.000000 0.000000 -1.000000
vn 0.000000 0.000000 -1.000000
vn 0.000000 0.000000 -1.000000
vn 0.000000 0.000000 -1.000000
vn 0.000000 0.000000 -1.000000
vn 0.000000 0.000000 -1.000000
vn 0.000000 0.000000 -1.000000
vn 0.000000 0.000000 -1.000000
vn 0.000000 0.000000 -1.000000
vn 0.000000 0.000000 -1.000000
vn 0.000000 0.000000 -1.000000
vn 0.000000 0.000000 -1.000000
vn 0.000000 0.000000 -1.000000
vn 0.000000 0.000000 -1.000000
vn 0.000000 0.000000 -1.000000
vn 0.000000 0.000000 -1.000000
vn 0.000000 0.000000 -1.000000
vn 0.000000 0.000000 -1.000000
vn 0.000000 0.000000 -1.000000
vn 0.000000 0.000000 -1.000000
vn 0.000000 0.000000 -1.000000
vn 0.000000 0.000000 -1.000000
vn 0.000000 0.000000 -1.000000
vn 0.000000 0.000000 -1.000000
vn 0.000000 0.000000 -1.000000
vn 0.000000 0.000000 -1.000000
vn 0.000000 0.000000 -1.000000
vn 0.000000 0.000000 -1.000000
vn 0.000000 0.000000 -1.000000
vn 0.000000 0.000000 -1.000000
vn 0.000000 0.000000 -1.000000
vn 0.000000 0.000000 -1.000000
vn 0.000000 0.000000 -1.000000
vn 0.000000 -0.000000 1.000000
vn 0.000000 -0.000000 1.000000
vn 0.000000 -0.000000 1.000000
vn 0.000000 -0.000000 1.000000
vn 0.000000 -0.000000 1.000000
vn 0.000000 -0.000000 1.000000
vn 0.000000 -0.000000 1.000000
vn 0.000000 -0.000000 1.000000
vn 0.000000 -0.000000 1.000000
vn 0.000000 -0.000000 1.000000
vn 0.000000 -0.000000 1.000000
vn 0.000000 -0.000000 1.000000
vn 0.000000 -0.000000 1.000000
vn 0.000000 -0.000000 1.000000
vn 0.000000 -0.000000 1.000000
vn 0.000000 -0.000000 1.000000
vn 0.000000 -0.000000 1.000000
vn 0.000000 -0.000000 1.000000
vn 0.000000 -0.000000 1.000000
vn 0.000000 -0.000000 1.000000
vn 0.000000 -0.000000 1.000000
vn 0.000000 -0.000000 1.000000
vn 0.000000 -0.000000 1.000000
vn 0.000000 -0.000000 1.000000
vn 0.000000 -0.000000 1.000000
vn 0.000000 -0.000000 1.000000
vn 0.000000 -0.000000 1.000000
vn 0.000000 -0.000000 1.000000
vn 0.000000 -0.000000 1.000000
vn 0.000000 -0.000000 1.000000
vn 0.000000 1.000000 0.000000
vn 0.000000 1.000000 0.000000
vn 0.000000 1.000000 0.000000
vn 0.000000 1.000000 0.000000
vn 0.000000 1.000000 0.000000
vn 0.000000 1.000000 0.000000
vn -1.000000 0.000000 -0.000000
vn -1.000000 0.000000 -0.000000
vn -1.000000 0.000000 -0.000000
vn -1.000000 0.000000 -0.000000
vn -1.000000 0.000000 -0.000000
vn -1.000000 0.000000 -0.000000
vn 0.000000 -1.000000 -0.000000
vn 0.000000 -1.000000 -0.000000
vn 0.000000 -1.000000 -0.000000
vn 0.000000 -1.000000 -0.000000
vn 0.000000 -1.000000 -0.000000
vn 0.000000 -1.000000 -0.000000
vn 1.000000 0.000000 -0.000000
vn 1.000000 0.000000 -0.000000
vn 1.000000 0.000000 -0.000000
vn 1.000000 0.000000 -0.000000
vn 1.000000 0.000000 -0.000000
vn 1.000000 0.000000 -0.000000
vn -1.000000 0.000000 -0.000000
vn -1.000000 0.000000 -0.000000
vn -1.000000 0.000000 -0.000000
vn -1.000000 0.000000 -0.000000
vn -1.000000 0.000000 -0.000000
vn -1.000000 0.000000 -0.000000
vn 0.000000 1.000000 0.000000
vn 0.000000 1.000000 0.000000
vn 0.000000 1.000000 0.000000
vn 0.000000 1.000000 0.000000
vn 0.000000 1.000000 0.000000
vn 0.000000 1.000000 0.000000
vn 1.000000 0.000000 -0.000000
vn 1.000000 0.000000 -0.000000
vn 1.000000 0.000000 -0.000000
vn 1.000000 0.000000 -0.000000
vn 1.000000 0.000000 -0.000000
vn 1.000000 0.000000 -0.000000
vn 0.000000 -1.000000 -0.000000
vn 0.000000 -1.000000 -0.000000
vn 0.000000 -1.000000 -0.000000
vn 0.000000 -1.000000 -0.000000
vn 0.000000 -1.000000 -0.000000
vn 0.000000 -1.000000 -0.000000
vn 1.000000 0.000000 -0.000000
vn 1.000000 0.000000 -0.000000
vn 1.000000 0.000000 -0.000000
vn 1.000000 0.000000 -0.000000
vn 1.000000 0.000000 -0.000000
vn 1.000000 0.000000 -0.000000
vn 0.000000 1.000000 0.000000
vn 0.000000 1.000000 0.000000
vn 0.000000 1.000000 0.000000
vn 0.000000 1.000000 0.000000
vn 0.000000 1.000000 0.000000
vn 0.000000 1.000000 0.000000
vn -1.000000 0.000000 -0.000000
vn -1.000000 0.000000 -0.000000
vn -1.000000 0.000000 -0.000000
vn -1.000000 0.000000 -0.000000
vn -1.000000 0.000000 -0.000000
vn -1.000000 0.000000 -0.000000
vn 0.000000 -1.000000 -0.000000
vn 0.000000 -1.000000 -0.000000
vn 0.000000 -1.000000 -0.000000
vn 0.000000 -1.000000 -0.000000
vn 0.000000 -1.000000 -0.000000
vn 0.000000 -1.000000 -0.000000
vn 1.000000 0.000000 -0.000000
vn 1.000000 0.000000 -0.000000
vn 1.000000 0.000000 -0.000000
vn 1.000000 0.000000 -0.000000
vn 1.000000 0.000000 -0.000000
vn 1.000000 0.000000 -0.000000
vn 0.000000 -1.000000 -0.000000
vn 0.000000 -1.000000 -0.000000
vn 0.000000 -1.000000 -0.000000
vn 0.000000 -1.000000 -0.000000
vn 0.000000 -1.000000 -0.000000
vn 0.000000 -1.000000 -0.000000
vn -1.000000 0.000000 -0.000000
vn -1.000000 0.000000 -0.000000
vn -1.000000 0.000000 -0.000000
vn -1.000000 0.000000 -0.000000
vn -1.000000 0.000000 -0.000000
vn -1.000000 0.000000 -0.000000
vn 0.000000 1.000000 0.000000
vn 0.000000 1.000000 0.000000
vn 0.000000 1.000000 0.000000
vn 0.000000 1.000000 0.000000
vn 0.000000 1.000000 0.000000
vn 0.000000 1.000000 0.000000
# 246 vertex normals

vt 0.988896 0.016484 0.000000
vt 0.890030 0.987760 0.000000
vt 0.870119 0.258696 0.000000
vt 0.870119 0.988417 0.000000
vt 0.829436 0.988417 0.000000
vt 0.988896 0.746198 0.000000
vt 0.890030 0.744522 0.000000
vt 0.829437 0.258696 0.000000
vt 0.950113 0.746198 0.000000
vt 0.928813 0.744522 0.000000
vt 0.950113 0.016484 0.000000
vt 0.928813 0.987760 0.000000
vt 0.876308 0.075165 0.000000
vt 0.876308 0.111533 0.000000
vt 0.876308 0.179036 0.000000
vt 0.312112 0.075165 0.000000
vt 0.312111 0.119021 0.000000
vt 0.312112 0.083736 0.000000
vt 0.008058 0.185442 0.000000
vt 0.876308 0.119021 0.000000
vt 0.312120 0.020701 0.000000
vt 0.312105 0.036016 0.000000
vt 0.280981 0.064084 0.000000
vt 0.876308 0.020701 0.000000
vt 0.876308 0.055253 0.000000
vt 0.312119 0.055253 0.000000
vt 0.876308 0.012758 0.000000
vt 0.312120 0.012759 0.000000
vt 0.312119 0.047698 0.000000
vt 0.876308 0.047698 0.000000
vt 0.312120 0.005203 0.000000
vt 0.876308 0.005203 0.000000
vt 0.876308 0.028256 0.000000
vt 0.876308 0.036015 0.000000
vt 0.020830 0.064084 0.000000
vt 0.312120 0.028256 0.000000
vt 0.312112 0.065011 0.000000
vt 0.312112 0.111533 0.000000
vt 0.008058 0.179037 0.000000
vt 0.876308 0.065011 0.000000
vt 0.876308 0.129176 0.000000
vt 0.876308 0.083736 0.000000
vt 0.876308 0.185442 0.000000
vt 0.312111 0.129176 0.000000
vt 0.790601 0.814838 0.000000
vt 0.790601 0.970356 0.000000
vt 0.441516 0.970356 0.000000
vt 0.441516 0.814838 0.000000
vt 0.037419 0.970100 0.000000
vt 0.037419 0.814582 0.000000
vt 0.386503 0.814582 0.000000
vt 0.386503 0.970100 0.000000
vt 0.783334 0.237916 0.000000
vt 0.783334 0.769504 0.000000
vt 0.451217 0.769503 0.000000
vt 0.451218 0.237916 0.000000
vt 0.377037 0.767186 0.000000
vt 0.044921 0.767186 0.000000
vt 0.044921 0.235598 0.000000
vt 0.377037 0.235598 0.000000
vt 0.811902 0.208640 0.000000
vt 0.811902 0.795488 0.000000
vt 0.797780 0.781366 0.000000
vt 0.797779 0.222763 0.000000
vt 0.420670 0.795488 0.000000
vt 0.420670 0.208640 0.000000
vt 0.434793 0.222763 0.000000
vt 0.434793 0.781366 0.000000
vt 0.811902 0.991104 0.000000
vt 0.420670 0.991104 0.000000
vt 0.434793 0.976982 0.000000
vt 0.797780 0.976982 0.000000
vt 0.434793 0.809610 0.000000
vt 0.797780 0.809610 0.000000
vt 0.015299 0.794091 0.000000
vt 0.015299 0.207243 0.000000
vt 0.029421 0.221366 0.000000
vt 0.029421 0.779969 0.000000
vt 0.406530 0.207243 0.000000
vt 0.392408 0.221366 0.000000
vt 0.406530 0.794091 0.000000
vt 0.392408 0.779969 0.000000
vt 0.406530 0.989707 0.000000
vt 0.392408 0.975584 0.000000
vt 0.392408 0.808214 0.000000
vt 0.015299 0.989707 0.000000
vt 0.029421 0.975584 0.000000
vt 0.029421 0.808214 0.000000
vt 0.890031 0.014808 0.000000
vt 0.928813 0.014808 0.000000
vt 0.988896 0.989436 0.000000
vt 0.950113 0.989436 0.000000
vt 0.280979 0.075169 0.000000
vt 0.020830 0.075169 0.000000
vt 0.020830 0.069076 0.000000
vt 0.280979 0.069076 0.000000
vt 0.020830 0.046907 0.000000
vt 0.280983 0.046907 0.000000
vt 0.280983 0.053000 0.000000
vt 0.020830 0.053000 0.000000
vt 0.020830 0.035822 0.000000
vt 0.280982 0.035822 0.000000
vt 0.280982 0.041915 0.000000
vt 0.020830 0.041915 0.000000
vt 0.876308 0.043570 0.000000
vt 0.312105 0.043570 0.000000
vt 0.020830 0.057992 0.000000
vt 0.280981 0.057992 0.000000
vt 0.876308 0.161394 0.000000
vt 0.008058 0.161394 0.000000
vt 0.008058 0.151240 0.000000
vt 0.876308 0.151239 0.000000
vt 0.312112 0.101379 0.000000
vt 0.876308 0.101379 0.000000
vt 0.008058 0.168882 0.000000
vt 0.876308 0.168882 0.000000
vt 0.008058 0.134680 0.000000
vt 0.876308 0.134680 0.000000
vt 0.876308 0.144834 0.000000
vt 0.008058 0.144834 0.000000
vt 0.876308 0.093891 0.000000
vt 0.312112 0.093891 0.000000
vt 0.876308 0.195596 0.000000
vt 0.008058 0.195596 0.000000
# 124 texture coords

g RicePaper_Wall_LP001
usemtl Material__236
s 1
f 38/54/1 39/55/2 40/56/3 
f 40/56/4 37/53/5 38/54/6 
s 4
f 9/6/7 11/9/8 5/11/9 
f 5/11/10 3/1/11 9/6/12 
f 10/7/13 12/10/14 7/12/15 
f 7/12/16 2/2/17 10/7/18 
s 8
f 4/3/19 3/4/20 5/5/21 
f 5/5/22 8/8/23 4/3/24 
s 1
f 43/58/25 44/59/26 41/60/27 
f 41/60/28 42/57/29 43/58/30 
f 29/46/31 30/47/32 31/48/33 
f 31/48/34 32/45/35 29/46/36 
s 4
f 1/91/37 6/92/38 11/9/39 
f 11/9/40 9/6/41 1/91/42 
f 4/89/43 8/90/44 12/10/45 
f 12/10/46 10/7/47 4/89/48 
s 1
f 34/50/49 35/51/50 36/52/51 
f 36/52/52 33/49/53 34/50/54 
s 2
f 5/61/55 11/62/56 14/63/57 
f 14/63/58 13/64/59 5/61/60 
f 12/65/61 8/66/62 16/67/63 
f 16/67/64 15/68/65 12/65/66 
f 8/66/67 5/61/68 13/64/69 
f 13/64/70 16/67/71 8/66/72 
f 9/75/73 3/76/74 18/77/75 
f 18/77/76 17/78/77 9/75/78 
f 3/76/79 4/79/80 19/80/81 
f 19/80/82 18/77/83 3/76/84 
f 4/79/85 10/81/86 20/82/87 
f 20/82/88 19/80/89 4/79/90 
f 10/81/91 2/83/92 22/84/93 
f 22/84/94 21/85/95 10/81/96 
f 2/83/97 1/86/98 23/87/99 
f 23/87/100 22/84/101 2/83/102 
f 1/86/103 9/75/104 24/88/105 
f 24/88/106 23/87/107 1/86/108 
f 17/78/109 20/82/110 10/81/111 
f 9/75/112 17/78/113 10/81/114 
f 9/75/115 10/81/116 21/85/117 
f 9/75/118 21/85/119 24/88/120 
f 6/69/121 7/70/122 26/71/123 
f 26/71/124 25/72/125 6/69/126 
f 7/70/127 12/65/128 27/73/129 
f 27/73/130 26/71/131 7/70/132 
f 15/68/133 14/63/134 11/62/135 
f 12/65/136 15/68/137 11/62/138 
f 12/65/139 11/62/140 28/74/141 
f 12/65/142 28/74/143 27/73/144 
f 11/62/145 6/69/146 25/72/147 
f 25/72/148 28/74/149 11/62/150 
s 16
f 25/25/151 26/26/152 30/29/153 
f 30/29/154 29/30/155 25/25/156 
s 32
f 26/97/157 27/98/158 31/99/159 
f 31/99/160 30/100/161 26/97/162 
s 16
f 27/27/163 28/28/164 32/31/165 
f 32/31/166 31/32/167 27/27/168 
s 32
f 28/93/169 25/94/170 29/95/171 
f 29/95/172 32/96/173 28/93/174 
f 21/101/175 22/102/176 34/103/177 
f 34/103/178 33/104/179 21/101/180 
s 16
f 22/22/181 23/34/182 35/105/183 
f 35/105/184 34/106/185 22/22/186 
s 32
f 23/23/187 24/35/188 36/107/189 
f 36/107/190 35/108/191 23/23/192 
s 16
f 24/21/193 21/24/194 33/33/195 
f 33/33/196 36/36/197 24/21/198 
s 32
f 13/109/199 14/110/200 38/111/201 
f 38/111/202 37/112/203 13/109/204 
s 16
f 14/14/205 15/38/206 39/113/207 
f 39/113/208 38/114/209 14/14/210 
s 32
f 15/15/211 16/39/212 40/115/213 
f 40/115/214 39/116/215 15/15/216 
s 16
f 16/13/217 13/16/218 37/37/219 
f 37/37/220 40/40/221 16/13/222 
s 32
f 17/117/223 18/118/224 42/119/225 
f 42/119/226 41/120/227 17/117/228 
s 16
f 18/18/229 19/42/230 43/121/231 
f 43/121/232 42/122/233 18/18/234 
s 32
f 19/19/235 20/43/236 44/123/237 
f 44/123/238 43/124/239 19/19/240 
s 16
f 20/17/241 17/20/242 41/41/243 
f 41/41/244 44/44/245 20/17/246 
# 82 faces

