# 3ds Max Wavefront OBJ Exporter v0.97b - (c)2007 guruware
# File Created: 26.02.2015 00:09:16

mtllib Palace_Wall_Sngl.mtl

#
# object Palace_Single_Wall01
#

v  -49.994141 -93.551750 -0.843807
v  -50.005005 -118.551750 -0.843807
v  50.008545 -118.551750 -0.843807
v  50.008545 -93.551750 -0.843807
v  -49.994141 -93.551750 -10.843807
v  50.008545 -93.551750 -10.843807
v  -49.994141 83.525703 -0.843807
v  -49.994141 81.051750 -0.843807
v  50.008545 81.051750 -0.843807
v  49.990601 83.525703 -0.843807
v  50.008545 81.051750 -10.843807
v  -49.994141 81.051750 -10.843807
v  49.990601 103.577797 -3.343807
v  -49.994141 103.577797 -3.343807
v  -49.994141 83.525703 -3.343807
v  49.990601 83.525703 -3.343807
v  -49.994141 106.051750 -0.843807
v  -49.994141 103.577797 -0.843807
v  49.990601 103.577797 -0.843807
v  50.008545 106.051750 -0.843807
v  50.008545 106.051750 10.843807
v  -50.008545 106.051750 10.843807
v  50.008545 118.551750 10.843807
v  -50.008545 118.551750 10.843807
# 24 vertices

vn 0.000000 0.000000 1.000000
vn 0.000000 0.000000 1.000000
vn 0.000000 0.000000 1.000000
vn 0.000000 0.000000 1.000000
vn 0.000000 0.000000 1.000000
vn 0.000000 0.000000 1.000000
vn 0.000000 1.000000 -0.000000
vn 0.000000 1.000000 -0.000000
vn 0.000000 1.000000 -0.000000
vn 0.000000 1.000000 -0.000000
vn 0.000000 1.000000 -0.000000
vn 0.000000 1.000000 -0.000000
vn 0.000000 0.000000 1.000000
vn 0.000000 0.000000 1.000000
vn 0.000000 0.000000 1.000000
vn 0.000000 0.000000 1.000000
vn 0.000000 0.000000 1.000000
vn 0.000000 0.000000 1.000000
vn 0.000000 0.000000 1.000000
vn 0.000000 0.000000 1.000000
vn 0.000000 0.000000 1.000000
vn 0.000000 0.000000 1.000000
vn 0.000000 0.000000 1.000000
vn 0.000000 0.000000 1.000000
vn 0.000000 -1.000000 -0.000000
vn 0.000000 -1.000000 -0.000000
vn 0.000000 -1.000000 -0.000000
vn 0.000000 -1.000000 -0.000000
vn 0.000000 -1.000000 -0.000000
vn 0.000000 -1.000000 -0.000000
vn 0.000000 0.000000 1.000000
vn 0.000000 0.000000 1.000000
vn 0.000000 0.000000 1.000000
vn 0.000000 0.000000 1.000000
vn 0.000000 0.000000 1.000000
vn 0.000000 0.000000 1.000000
vn 0.000000 0.000000 1.000000
vn 0.000000 0.000000 1.000000
vn 0.000000 0.000000 1.000000
vn 0.000000 0.000000 1.000000
vn 0.000000 0.000000 1.000000
vn 0.000000 0.000000 1.000000
vn 0.000000 1.000000 -0.000000
vn 0.000000 1.000000 -0.000000
vn 0.000000 1.000000 -0.000000
vn 0.000000 1.000000 -0.000000
vn 0.000000 1.000000 -0.000000
vn 0.000000 1.000000 -0.000000
vn 0.000000 -1.000000 -0.000000
vn 0.000000 -1.000000 -0.000000
vn 0.000000 -1.000000 -0.000000
vn 0.000000 -1.000000 -0.000000
vn 0.000000 -1.000000 -0.000000
vn 0.000000 -1.000000 -0.000000
vn 0.000000 -1.000000 -0.000000
vn 0.000000 -1.000000 -0.000000
vn 0.000000 -1.000000 -0.000000
vn 0.000000 -1.000000 -0.000000
vn 0.000000 -1.000000 -0.000000
vn 0.000000 -1.000000 -0.000000
vn 0.000000 0.000000 1.000000
vn 0.000000 0.000000 1.000000
vn 0.000000 0.000000 1.000000
vn 0.000000 0.000000 1.000000
vn 0.000000 0.000000 1.000000
vn 0.000000 0.000000 1.000000
# 66 vertex normals

vt 0.873566 0.845309 0.000000
vt 0.873566 0.881965 0.000000
vt 0.874577 0.990224 0.000000
vt 0.807145 0.712714 0.000000
vt 0.011789 0.712714 0.000000
vt 0.011789 0.010345 0.000000
vt 0.966972 0.817571 0.000000
vt 0.955149 0.006646 0.000000
vt 0.955149 0.817572 0.000000
vt 0.966972 0.006797 0.000000
vt 0.907355 0.817572 0.000000
vt 0.907355 0.006646 0.000000
vt 0.980875 0.817459 0.000000
vt 0.980875 0.006685 0.000000
vt 0.895228 0.195295 0.000000
vt 0.895228 0.550447 0.000000
vt 0.969052 0.006685 0.000000
vt 0.992823 0.006685 0.000000
vt 0.992823 0.817459 0.000000
vt 0.816425 0.773727 0.000000
vt 0.816425 0.840948 0.000000
vt 0.003245 0.840948 0.000000
vt 0.003245 0.773727 0.000000
vt 0.013423 0.990223 0.000000
vt 0.012505 0.881964 0.000000
vt 0.807146 0.010345 0.000000
vt 0.012505 0.845309 0.000000
vt 0.816425 0.733549 0.000000
vt 0.003357 0.733549 0.000000
vt 0.978920 0.006797 0.000000
vt 0.978920 0.817571 0.000000
vt 0.826781 0.550447 0.000000
vt 0.826781 0.195295 0.000000
vt 0.969052 0.817611 0.000000
# 34 texture coords

g Palace_Single_Wall01
usemtl Material__103
s off
f 2/3/1 3/24/2 4/25/3 
f 4/25/4 1/2/5 2/3/6 
f 1/2/7 4/25/8 6/27/9 
f 6/27/10 5/1/11 1/2/12 
f 8/9/13 9/8/14 10/10/15 
f 10/10/16 7/7/17 8/9/18 
s 8
f 12/5/19 5/6/20 6/26/21 
f 6/26/22 11/4/23 12/5/24 
s 1
f 8/9/25 12/11/26 11/12/27 
f 11/12/28 9/8/29 8/9/30 
s off
f 14/16/31 15/32/32 16/33/33 
f 16/33/34 13/15/35 14/16/36 
f 18/14/37 19/13/38 20/34/39 
f 20/34/40 17/17/41 18/14/42 
f 7/7/43 10/10/44 16/30/45 
f 16/30/46 15/31/47 7/7/48 
f 19/13/49 18/14/50 14/18/51 
f 14/18/52 13/19/53 19/13/54 
f 21/20/55 22/23/56 17/29/57 
f 17/29/58 20/28/59 21/20/60 
f 24/22/61 22/23/62 21/20/63 
f 21/20/64 23/21/65 24/22/66 
# 22 faces

