# 3ds Max Wavefront OBJ Exporter v0.97b - (c)2007 guruware
# File Created: 17.03.2015 01:38:08

#
# object Palace_Wdn_RoundDoor002
#

v  -25.868406 -95.223129 -0.230289
v  -50.010395 -88.334610 -0.227571
v  -70.795799 -71.467796 -0.226212
v  -85.775101 -50.264225 -0.227564
v  -96.985809 -26.473551 -0.230276
v  -100.928345 -0.460877 -0.231628
v  -97.366165 25.551796 -0.230268
v  -87.036087 49.773521 -0.227549
v  -71.545807 71.091164 -0.226189
v  -50.010441 86.461403 -0.227543
v  -25.868456 96.453125 -0.230255
v  0.000000 99.858559 -0.231613
v  -25.500498 -94.836952 -11.028275
v  -49.299137 -87.098366 -9.882656
v  -69.788925 -70.457909 -9.367641
v  -84.540718 -49.549774 -9.907761
v  -95.608025 -26.103580 -11.344410
v  -99.501579 -0.460869 -11.884529
v  -95.988380 25.181850 -11.344402
v  -85.801697 49.059082 -9.907745
v  -70.538933 70.081299 -9.367615
v  -49.299179 85.225189 -9.882622
v  -25.500547 95.074799 -11.028236
v  0.000000 98.431801 -12.363033
v  -17.389933 -65.471764 7.853082
v  -33.605629 -58.757442 7.853621
v  -47.546520 -48.070313 7.853894
v  -58.258057 -34.133247 7.853628
v  -64.999397 -17.893789 7.853090
v  -67.300278 -0.460864 7.852823
v  -64.999405 16.972057 7.853097
v  -58.258080 33.211536 7.853639
v  -47.546562 47.148605 7.853910
v  -33.605659 57.835754 7.853642
v  -17.389965 64.550072 7.853105
v  0.000000 66.839439 7.852834
v  0.000000 -0.460838 12.363052
v  0.000000 -99.858566 -0.231646
v  25.868406 -95.223129 -0.230289
v  25.500498 -94.836952 -11.028275
v  0.000000 -98.431786 -12.363060
v  50.010395 -88.334610 -0.227571
v  49.299137 -87.098366 -9.882656
v  70.795799 -71.467796 -0.226212
v  69.788925 -70.457909 -9.367641
v  85.775101 -50.264225 -0.227564
v  84.540718 -49.549774 -9.907761
v  96.985809 -26.473551 -0.230276
v  95.608025 -26.103580 -11.344410
v  100.928345 -0.460877 -0.231628
v  99.501579 -0.460869 -11.884529
v  97.366165 25.551796 -0.230268
v  95.988380 25.181850 -11.344402
v  87.036087 49.773521 -0.227549
v  85.801697 49.059082 -9.907745
v  71.545807 71.091164 -0.226189
v  70.538933 70.081299 -9.367615
v  50.010441 86.461403 -0.227543
v  49.299179 85.225189 -9.882622
v  25.868456 96.453125 -0.230255
v  25.500547 95.074799 -11.028236
v  0.000000 -67.761116 7.852813
v  17.389933 -65.471764 7.853082
v  33.605629 -58.757442 7.853621
v  47.546520 -48.070313 7.853894
v  58.258057 -34.133247 7.853628
v  64.999397 -17.893789 7.853090
v  67.300278 -0.460864 7.852823
v  64.999405 16.972057 7.853097
v  58.258080 33.211536 7.853639
v  47.546562 47.148605 7.853910
v  33.605659 57.835754 7.853642
v  17.389965 64.550072 7.853105
# 73 vertices

vn 0.000000 -0.995198 -0.097885
vn -0.240627 -0.969077 -0.054674
vn -0.236606 -0.970130 -0.053523
vn -0.236606 -0.970130 -0.053523
vn 0.000000 -0.993155 -0.116805
vn 0.000000 -0.995198 -0.097885
vn -0.240627 -0.969077 -0.054674
vn -0.458389 -0.876507 -0.147018
vn -0.458996 -0.878414 -0.133084
vn -0.458996 -0.878414 -0.133084
vn -0.236606 -0.970130 -0.053523
vn -0.240627 -0.969077 -0.054674
vn -0.458389 -0.876507 -0.147018
vn -0.720671 -0.676126 -0.153259
vn -0.721372 -0.675428 -0.153034
vn -0.721372 -0.675428 -0.153034
vn -0.458996 -0.878414 -0.133084
vn -0.458389 -0.876507 -0.147018
vn -0.720671 -0.676126 -0.153259
vn -0.853465 -0.501102 -0.143157
vn -0.853280 -0.500453 -0.146491
vn -0.853280 -0.500453 -0.146491
vn -0.721372 -0.675428 -0.153034
vn -0.720671 -0.676126 -0.153259
vn -0.853465 -0.501102 -0.143157
vn -0.948821 -0.289431 -0.126370
vn -0.948821 -0.288028 -0.129534
vn -0.948821 -0.288028 -0.129534
vn -0.853280 -0.500453 -0.146491
vn -0.853465 -0.501102 -0.143157
vn -0.948821 -0.289431 -0.126370
vn -0.992474 -0.006094 -0.122307
vn -0.992465 -0.006265 -0.122364
vn -0.992465 -0.006265 -0.122364
vn -0.948821 -0.288028 -0.129534
vn -0.948821 -0.289431 -0.126370
vn -0.992474 -0.006094 -0.122307
vn -0.955059 0.266643 -0.129475
vn -0.955952 0.264869 -0.126491
vn -0.955952 0.264869 -0.126491
vn -0.992465 -0.006265 -0.122364
vn -0.992474 -0.006094 -0.122307
vn -0.955059 0.266643 -0.129475
vn -0.859978 0.488835 -0.146556
vn -0.861219 0.487609 -0.143315
vn -0.861219 0.487609 -0.143315
vn -0.955952 0.264869 -0.126491
vn -0.955059 0.266643 -0.129475
vn -0.859978 0.488835 -0.146556
vn -0.696469 0.701007 -0.153361
vn -0.696478 0.701011 -0.153304
vn -0.696478 0.701011 -0.153304
vn -0.861219 0.487609 -0.143315
vn -0.859978 0.488835 -0.146556
vn -0.696469 0.701007 -0.153361
vn -0.481960 0.864248 -0.144184
vn -0.480547 0.864589 -0.146831
vn -0.480547 0.864589 -0.146831
vn -0.696478 0.701011 -0.153304
vn -0.696469 0.701007 -0.153361
vn -0.481960 0.864248 -0.144184
vn -0.258821 0.957277 -0.128968
vn -0.256645 0.957354 -0.132692
vn -0.256645 0.957354 -0.132692
vn -0.480547 0.864589 -0.146831
vn -0.481960 0.864248 -0.144184
vn -0.258821 0.957277 -0.128968
vn 0.000000 0.993155 -0.116804
vn 0.000000 0.992718 -0.120461
vn 0.000000 0.992718 -0.120461
vn -0.256645 0.957354 -0.132692
vn -0.258821 0.957277 -0.128968
vn -0.055294 -0.244995 0.967946
vn 0.000000 -0.244244 0.969714
vn 0.000000 -0.166300 0.986075
vn 0.000000 -0.166300 0.986075
vn -0.039029 -0.160245 0.986305
vn -0.055294 -0.244995 0.967946
vn -0.113016 -0.208421 0.971488
vn -0.055294 -0.244995 0.967946
vn -0.039029 -0.160245 0.986305
vn -0.039029 -0.160245 0.986305
vn -0.079740 -0.136152 0.987474
vn -0.113016 -0.208421 0.971488
vn -0.171933 -0.162933 0.971541
vn -0.113016 -0.208421 0.971488
vn -0.079740 -0.136152 0.987474
vn -0.079740 -0.136152 0.987474
vn -0.114823 -0.113120 0.986924
vn -0.171933 -0.162933 0.971541
vn -0.209993 -0.123966 0.969812
vn -0.171933 -0.162933 0.971541
vn -0.114823 -0.113120 0.986924
vn -0.114823 -0.113120 0.986924
vn -0.140239 -0.082727 0.986656
vn -0.209993 -0.123966 0.969812
vn -0.229373 -0.067509 0.970995
vn -0.209993 -0.123966 0.969812
vn -0.140239 -0.082727 0.986656
vn -0.140239 -0.082727 0.986656
vn -0.153438 -0.041785 0.987274
vn -0.229373 -0.067509 0.970995
vn -0.234518 -0.000959 0.972111
vn -0.229373 -0.067509 0.970995
vn -0.153438 -0.041785 0.987274
vn -0.153438 -0.041785 0.987274
vn -0.157855 0.000142 0.987462
vn -0.234518 -0.000959 0.972111
vn -0.226117 0.062064 0.972121
vn -0.234518 -0.000959 0.972111
vn -0.157855 0.000142 0.987462
vn -0.157855 0.000142 0.987462
vn -0.152987 0.041394 0.987361
vn -0.226117 0.062064 0.972121
vn -0.205530 0.116201 0.971728
vn -0.226117 0.062064 0.972121
vn -0.152987 0.041394 0.987361
vn -0.152987 0.041394 0.987361
vn -0.137555 0.078614 0.987369
vn -0.205530 0.116201 0.971728
vn -0.163520 0.165922 0.972487
vn -0.205530 0.116201 0.971728
vn -0.137555 0.078614 0.987369
vn -0.137555 0.078614 0.987369
vn -0.110641 0.112286 0.987497
vn -0.163520 0.165922 0.972487
vn -0.115740 0.206231 0.971634
vn -0.163520 0.165922 0.972487
vn -0.110641 0.112286 0.987497
vn -0.110641 0.112286 0.987497
vn -0.079952 0.138580 0.987119
vn -0.115740 0.206231 0.971634
vn -0.061429 0.229757 0.971308
vn -0.115740 0.206231 0.971634
vn -0.079952 0.138580 0.987119
vn -0.079952 0.138580 0.987119
vn -0.041384 0.154508 0.987124
vn -0.061429 0.229757 0.971308
vn -0.000000 0.237804 0.971313
vn -0.061429 0.229757 0.971308
vn -0.041384 0.154508 0.987124
vn -0.041384 0.154508 0.987124
vn -0.000000 0.159938 0.987127
vn -0.000000 0.237804 0.971313
vn -0.039029 -0.160245 0.986305
vn 0.000000 -0.166300 0.986075
vn -0.000000 -0.000000 1.000000
vn -0.079740 -0.136152 0.987474
vn -0.039029 -0.160245 0.986305
vn -0.000000 -0.000000 1.000000
vn -0.114823 -0.113120 0.986924
vn -0.079740 -0.136152 0.987474
vn -0.000000 -0.000000 1.000000
vn -0.140239 -0.082727 0.986656
vn -0.114823 -0.113120 0.986924
vn -0.000000 -0.000000 1.000000
vn -0.153438 -0.041785 0.987274
vn -0.140239 -0.082727 0.986656
vn -0.000000 -0.000000 1.000000
vn -0.157855 0.000142 0.987462
vn -0.153438 -0.041785 0.987274
vn -0.000000 -0.000000 1.000000
vn -0.152987 0.041394 0.987361
vn -0.157855 0.000142 0.987462
vn -0.000000 -0.000000 1.000000
vn -0.137555 0.078614 0.987369
vn -0.152987 0.041394 0.987361
vn -0.000000 -0.000000 1.000000
vn -0.110641 0.112286 0.987497
vn -0.137555 0.078614 0.987369
vn -0.000000 -0.000000 1.000000
vn -0.079952 0.138580 0.987119
vn -0.110641 0.112286 0.987497
vn -0.000000 -0.000000 1.000000
vn -0.041384 0.154508 0.987124
vn -0.079952 0.138580 0.987119
vn -0.000000 -0.000000 1.000000
vn -0.000000 0.159938 0.987127
vn -0.041384 0.154508 0.987124
vn -0.000000 -0.000000 1.000000
vn 0.000000 -0.995198 -0.097885
vn 0.000000 -0.993155 -0.116805
vn 0.236606 -0.970130 -0.053523
vn 0.236606 -0.970130 -0.053523
vn 0.240627 -0.969077 -0.054674
vn 0.000000 -0.995198 -0.097885
vn 0.240627 -0.969077 -0.054674
vn 0.236606 -0.970130 -0.053523
vn 0.458996 -0.878414 -0.133084
vn 0.458996 -0.878414 -0.133084
vn 0.458389 -0.876507 -0.147018
vn 0.240627 -0.969077 -0.054674
vn 0.458389 -0.876507 -0.147018
vn 0.458996 -0.878414 -0.133084
vn 0.721372 -0.675428 -0.153034
vn 0.721372 -0.675428 -0.153034
vn 0.720671 -0.676126 -0.153259
vn 0.458389 -0.876507 -0.147018
vn 0.720671 -0.676126 -0.153259
vn 0.721372 -0.675428 -0.153034
vn 0.853280 -0.500453 -0.146491
vn 0.853280 -0.500453 -0.146491
vn 0.853465 -0.501102 -0.143157
vn 0.720671 -0.676126 -0.153259
vn 0.853465 -0.501102 -0.143157
vn 0.853280 -0.500453 -0.146491
vn 0.948821 -0.288028 -0.129534
vn 0.948821 -0.288028 -0.129534
vn 0.948821 -0.289431 -0.126370
vn 0.853465 -0.501102 -0.143157
vn 0.948821 -0.289431 -0.126370
vn 0.948821 -0.288028 -0.129534
vn 0.992465 -0.006265 -0.122364
vn 0.992465 -0.006265 -0.122364
vn 0.992474 -0.006094 -0.122307
vn 0.948821 -0.289431 -0.126370
vn 0.992474 -0.006094 -0.122307
vn 0.992465 -0.006265 -0.122364
vn 0.955952 0.264869 -0.126491
vn 0.955952 0.264869 -0.126491
vn 0.955059 0.266643 -0.129475
vn 0.992474 -0.006094 -0.122307
vn 0.955059 0.266643 -0.129475
vn 0.955952 0.264869 -0.126491
vn 0.861219 0.487609 -0.143315
vn 0.861219 0.487609 -0.143315
vn 0.859978 0.488835 -0.146556
vn 0.955059 0.266643 -0.129475
vn 0.859978 0.488835 -0.146556
vn 0.861219 0.487609 -0.143315
vn 0.696478 0.701011 -0.153304
vn 0.696478 0.701011 -0.153304
vn 0.696469 0.701007 -0.153361
vn 0.859978 0.488835 -0.146556
vn 0.696469 0.701007 -0.153361
vn 0.696478 0.701011 -0.153304
vn 0.480547 0.864589 -0.146831
vn 0.480547 0.864589 -0.146831
vn 0.481960 0.864248 -0.144184
vn 0.696469 0.701007 -0.153361
vn 0.481960 0.864248 -0.144184
vn 0.480547 0.864589 -0.146831
vn 0.256645 0.957354 -0.132692
vn 0.256645 0.957354 -0.132692
vn 0.258821 0.957277 -0.128968
vn 0.481960 0.864248 -0.144184
vn 0.258821 0.957277 -0.128968
vn 0.256645 0.957354 -0.132692
vn 0.000000 0.992718 -0.120461
vn 0.000000 0.992718 -0.120461
vn 0.000000 0.993155 -0.116804
vn 0.258821 0.957277 -0.128968
vn 0.055294 -0.244995 0.967946
vn 0.039029 -0.160245 0.986305
vn 0.000000 -0.166300 0.986075
vn 0.000000 -0.166300 0.986075
vn 0.000000 -0.244244 0.969714
vn 0.055294 -0.244995 0.967946
vn 0.113016 -0.208421 0.971488
vn 0.079740 -0.136152 0.987474
vn 0.039029 -0.160245 0.986305
vn 0.039029 -0.160245 0.986305
vn 0.055294 -0.244995 0.967946
vn 0.113016 -0.208421 0.971488
vn 0.171933 -0.162933 0.971541
vn 0.114823 -0.113119 0.986924
vn 0.079740 -0.136152 0.987474
vn 0.079740 -0.136152 0.987474
vn 0.113016 -0.208421 0.971488
vn 0.171933 -0.162933 0.971541
vn 0.209993 -0.123966 0.969812
vn 0.140239 -0.082727 0.986656
vn 0.114823 -0.113119 0.986924
vn 0.114823 -0.113119 0.986924
vn 0.171933 -0.162933 0.971541
vn 0.209993 -0.123966 0.969812
vn 0.229373 -0.067509 0.970995
vn 0.153438 -0.041785 0.987274
vn 0.140239 -0.082727 0.986656
vn 0.140239 -0.082727 0.986656
vn 0.209993 -0.123966 0.969812
vn 0.229373 -0.067509 0.970995
vn 0.234518 -0.000959 0.972111
vn 0.157855 0.000142 0.987462
vn 0.153438 -0.041785 0.987274
vn 0.153438 -0.041785 0.987274
vn 0.229373 -0.067509 0.970995
vn 0.234518 -0.000959 0.972111
vn 0.226117 0.062064 0.972121
vn 0.152987 0.041394 0.987361
vn 0.157855 0.000142 0.987462
vn 0.157855 0.000142 0.987462
vn 0.234518 -0.000959 0.972111
vn 0.226117 0.062064 0.972121
vn 0.205530 0.116201 0.971728
vn 0.137555 0.078614 0.987369
vn 0.152987 0.041394 0.987361
vn 0.152987 0.041394 0.987361
vn 0.226117 0.062064 0.972121
vn 0.205530 0.116201 0.971728
vn 0.163520 0.165922 0.972487
vn 0.110641 0.112286 0.987497
vn 0.137555 0.078614 0.987369
vn 0.137555 0.078614 0.987369
vn 0.205530 0.116201 0.971728
vn 0.163520 0.165922 0.972487
vn 0.115740 0.206231 0.971634
vn 0.079952 0.138580 0.987119
vn 0.110641 0.112286 0.987497
vn 0.110641 0.112286 0.987497
vn 0.163520 0.165922 0.972487
vn 0.115740 0.206231 0.971634
vn 0.061429 0.229757 0.971308
vn 0.041384 0.154508 0.987124
vn 0.079952 0.138580 0.987119
vn 0.079952 0.138580 0.987119
vn 0.115740 0.206231 0.971634
vn 0.061429 0.229757 0.971308
vn -0.000000 0.237804 0.971313
vn -0.000000 0.159938 0.987127
vn 0.041384 0.154508 0.987124
vn 0.041384 0.154508 0.987124
vn 0.061429 0.229757 0.971308
vn -0.000000 0.237804 0.971313
vn 0.039029 -0.160245 0.986305
vn -0.000000 -0.000000 1.000000
vn 0.000000 -0.166300 0.986075
vn 0.079740 -0.136152 0.987474
vn -0.000000 -0.000000 1.000000
vn 0.039029 -0.160245 0.986305
vn 0.114823 -0.113119 0.986924
vn -0.000000 -0.000000 1.000000
vn 0.079740 -0.136152 0.987474
vn 0.140239 -0.082727 0.986656
vn -0.000000 -0.000000 1.000000
vn 0.114823 -0.113119 0.986924
vn 0.153438 -0.041785 0.987274
vn -0.000000 -0.000000 1.000000
vn 0.140239 -0.082727 0.986656
vn 0.157855 0.000142 0.987462
vn -0.000000 -0.000000 1.000000
vn 0.153438 -0.041785 0.987274
vn 0.152987 0.041394 0.987361
vn -0.000000 -0.000000 1.000000
vn 0.157855 0.000142 0.987462
vn 0.137555 0.078614 0.987369
vn -0.000000 -0.000000 1.000000
vn 0.152987 0.041394 0.987361
vn 0.110641 0.112286 0.987497
vn -0.000000 -0.000000 1.000000
vn 0.137555 0.078614 0.987369
vn 0.079952 0.138580 0.987119
vn -0.000000 -0.000000 1.000000
vn 0.110641 0.112286 0.987497
vn 0.041384 0.154508 0.987124
vn -0.000000 -0.000000 1.000000
vn 0.079952 0.138580 0.987119
vn -0.000000 0.159938 0.987127
vn -0.000000 -0.000000 1.000000
vn 0.041384 0.154508 0.987124
# 360 vertex normals

vt 0.892431 0.925565 0.000000
vt 0.814565 0.937220 0.000000
vt 0.814565 0.937220 0.000000
vt 0.736270 0.946861 0.000000
vt 0.736271 0.946861 0.000000
vt 0.657632 0.954467 0.000000
vt 0.657629 0.954467 0.000000
vt 0.578764 0.960014 0.000000
vt 0.578748 0.960015 0.000000
vt 0.499754 0.963469 0.000000
vt 0.499620 0.963473 0.000000
vt 0.420558 0.964616 0.000000
vt 0.421065 0.964612 0.000000
vt 0.342005 0.964620 0.000000
vt 0.341495 0.964610 0.000000
vt 0.262546 0.961617 0.000000
vt 0.262683 0.961624 0.000000
vt 0.183942 0.956831 0.000000
vt 0.183959 0.956832 0.000000
vt 0.105520 0.950034 0.000000
vt 0.027393 0.941212 0.000000
vt 0.032776 0.898527 0.000000
vt 0.109792 0.907224 0.000000
vt 0.476142 0.890658 0.000000
vt 0.476143 0.756781 0.000000
vt 0.372194 0.876780 0.000000
vt 0.407479 0.747690 0.000000
vt 0.275639 0.836250 0.000000
vt 0.343529 0.721058 0.000000
vt 0.193175 0.772211 0.000000
vt 0.288664 0.678758 0.000000
vt 0.130282 0.689393 0.000000
vt 0.246609 0.623729 0.000000
vt 0.090949 0.593578 0.000000
vt 0.220196 0.559744 0.000000
vt 0.077572 0.491140 0.000000
vt 0.211192 0.491140 0.000000
vt 0.090949 0.388701 0.000000
vt 0.220196 0.422535 0.000000
vt 0.130282 0.292887 0.000000
vt 0.246609 0.358550 0.000000
vt 0.193174 0.210068 0.000000
vt 0.288664 0.303521 0.000000
vt 0.275639 0.146029 0.000000
vt 0.343529 0.261221 0.000000
vt 0.372194 0.105500 0.000000
vt 0.407479 0.234590 0.000000
vt 0.476143 0.091621 0.000000
vt 0.476143 0.225498 0.000000
vt 0.476143 0.491140 0.000000
vt 0.969860 0.911908 0.000000
vt 0.892431 0.925565 0.000000
vt 0.885510 0.883103 0.000000
vt 0.961837 0.869640 0.000000
vt 0.808751 0.894592 0.000000
vt 0.731570 0.904096 0.000000
vt 0.654050 0.911593 0.000000
vt 0.576307 0.917061 0.000000
vt 0.498436 0.920466 0.000000
vt 0.420499 0.921593 0.000000
vt 0.342563 0.921601 0.000000
vt 0.264737 0.918650 0.000000
vt 0.187116 0.913926 0.000000
vt 0.029835 0.077544 0.000000
vt 0.107263 0.063887 0.000000
vt 0.114185 0.106350 0.000000
vt 0.037857 0.119813 0.000000
vt 0.107263 0.063887 0.000000
vt 0.185129 0.052232 0.000000
vt 0.190943 0.094860 0.000000
vt 0.185129 0.052232 0.000000
vt 0.263424 0.042591 0.000000
vt 0.268124 0.085357 0.000000
vt 0.263424 0.042591 0.000000
vt 0.342063 0.034986 0.000000
vt 0.345645 0.077859 0.000000
vt 0.342065 0.034986 0.000000
vt 0.420930 0.029439 0.000000
vt 0.423388 0.072391 0.000000
vt 0.420946 0.029438 0.000000
vt 0.499941 0.025983 0.000000
vt 0.501259 0.068986 0.000000
vt 0.500075 0.025980 0.000000
vt 0.579136 0.024837 0.000000
vt 0.579196 0.067860 0.000000
vt 0.578629 0.024841 0.000000
vt 0.657689 0.024833 0.000000
vt 0.657131 0.067852 0.000000
vt 0.658200 0.024842 0.000000
vt 0.737149 0.027835 0.000000
vt 0.734958 0.070802 0.000000
vt 0.737012 0.027829 0.000000
vt 0.815752 0.032622 0.000000
vt 0.812579 0.075527 0.000000
vt 0.815735 0.032620 0.000000
vt 0.894174 0.039418 0.000000
vt 0.889903 0.082228 0.000000
vt 0.972301 0.048241 0.000000
vt 0.966919 0.090926 0.000000
vt 0.580091 0.876780 0.000000
vt 0.544806 0.747690 0.000000
vt 0.676646 0.836250 0.000000
vt 0.608756 0.721058 0.000000
vt 0.759111 0.772211 0.000000
vt 0.663621 0.678758 0.000000
vt 0.822003 0.689393 0.000000
vt 0.705676 0.623729 0.000000
vt 0.861336 0.593578 0.000000
vt 0.732089 0.559744 0.000000
vt 0.874713 0.491140 0.000000
vt 0.741093 0.491140 0.000000
vt 0.861336 0.388702 0.000000
vt 0.732089 0.422535 0.000000
vt 0.822003 0.292887 0.000000
vt 0.705676 0.358550 0.000000
vt 0.759111 0.210068 0.000000
vt 0.663621 0.303521 0.000000
vt 0.676646 0.146029 0.000000
vt 0.608757 0.261221 0.000000
vt 0.580091 0.105500 0.000000
vt 0.544807 0.234590 0.000000
# 121 texture coords

g Palace_Wdn_RoundDoor002
s 2
f 38/51/1 1/52/2 13/53/3 
f 13/53/4 41/54/5 38/51/6 
f 1/1/7 2/2/8 14/55/9 
f 14/55/10 13/53/11 1/1/12 
f 2/3/13 3/4/14 15/56/15 
f 15/56/16 14/55/17 2/3/18 
f 3/5/19 4/6/20 16/57/21 
f 16/57/22 15/56/23 3/5/24 
f 4/7/25 5/8/26 17/58/27 
f 17/58/28 16/57/29 4/7/30 
f 5/9/31 6/10/32 18/59/33 
f 18/59/34 17/58/35 5/9/36 
f 6/11/37 7/12/38 19/60/39 
f 19/60/40 18/59/41 6/11/42 
f 7/13/43 8/14/44 20/61/45 
f 20/61/46 19/60/47 7/13/48 
f 8/15/49 9/16/50 21/62/51 
f 21/62/52 20/61/53 8/15/54 
f 9/17/55 10/18/56 22/63/57 
f 22/63/58 21/62/59 9/17/60 
f 10/19/61 11/20/62 23/23/63 
f 23/23/64 22/63/65 10/19/66 
f 11/20/67 12/21/68 24/22/69 
f 24/22/70 23/23/71 11/20/72 
s 1
f 1/26/73 38/24/74 62/25/75 
f 62/25/76 25/27/77 1/26/78 
f 2/28/79 1/26/80 25/27/81 
f 25/27/82 26/29/83 2/28/84 
f 3/30/85 2/28/86 26/29/87 
f 26/29/88 27/31/89 3/30/90 
f 4/32/91 3/30/92 27/31/93 
f 27/31/94 28/33/95 4/32/96 
f 5/34/97 4/32/98 28/33/99 
f 28/33/100 29/35/101 5/34/102 
f 6/36/103 5/34/104 29/35/105 
f 29/35/106 30/37/107 6/36/108 
f 7/38/109 6/36/110 30/37/111 
f 30/37/112 31/39/113 7/38/114 
f 8/40/115 7/38/116 31/39/117 
f 31/39/118 32/41/119 8/40/120 
f 9/42/121 8/40/122 32/41/123 
f 32/41/124 33/43/125 9/42/126 
f 10/44/127 9/42/128 33/43/129 
f 33/43/130 34/45/131 10/44/132 
f 11/46/133 10/44/134 34/45/135 
f 34/45/136 35/47/137 11/46/138 
f 12/48/139 11/46/140 35/47/141 
f 35/47/142 36/49/143 12/48/144 
f 25/27/145 62/25/146 37/50/147 
f 26/29/148 25/27/149 37/50/150 
f 27/31/151 26/29/152 37/50/153 
f 28/33/154 27/31/155 37/50/156 
f 29/35/157 28/33/158 37/50/159 
f 30/37/160 29/35/161 37/50/162 
f 31/39/163 30/37/164 37/50/165 
f 32/41/166 31/39/167 37/50/168 
f 33/43/169 32/41/170 37/50/171 
f 34/45/172 33/43/173 37/50/174 
f 35/47/175 34/45/176 37/50/177 
f 36/49/178 35/47/179 37/50/180 
s 2
f 38/64/181 41/67/182 40/66/183 
f 40/66/184 39/65/185 38/64/186 
f 39/68/187 40/66/188 43/70/189 
f 43/70/190 42/69/191 39/68/192 
f 42/71/193 43/70/194 45/73/195 
f 45/73/196 44/72/197 42/71/198 
f 44/74/199 45/73/200 47/76/201 
f 47/76/202 46/75/203 44/74/204 
f 46/77/205 47/76/206 49/79/207 
f 49/79/208 48/78/209 46/77/210 
f 48/80/211 49/79/212 51/82/213 
f 51/82/214 50/81/215 48/80/216 
f 50/83/217 51/82/218 53/85/219 
f 53/85/220 52/84/221 50/83/222 
f 52/86/223 53/85/224 55/88/225 
f 55/88/226 54/87/227 52/86/228 
f 54/89/229 55/88/230 57/91/231 
f 57/91/232 56/90/233 54/89/234 
f 56/92/235 57/91/236 59/94/237 
f 59/94/238 58/93/239 56/92/240 
f 58/95/241 59/94/242 61/97/243 
f 61/97/244 60/96/245 58/95/246 
f 60/96/247 61/97/248 24/99/249 
f 24/99/250 12/98/251 60/96/252 
s 1
f 39/100/253 63/101/254 62/25/255 
f 62/25/256 38/24/257 39/100/258 
f 42/102/259 64/103/260 63/101/261 
f 63/101/262 39/100/263 42/102/264 
f 44/104/265 65/105/266 64/103/267 
f 64/103/268 42/102/269 44/104/270 
f 46/106/271 66/107/272 65/105/273 
f 65/105/274 44/104/275 46/106/276 
f 48/108/277 67/109/278 66/107/279 
f 66/107/280 46/106/281 48/108/282 
f 50/110/283 68/111/284 67/109/285 
f 67/109/286 48/108/287 50/110/288 
f 52/112/289 69/113/290 68/111/291 
f 68/111/292 50/110/293 52/112/294 
f 54/114/295 70/115/296 69/113/297 
f 69/113/298 52/112/299 54/114/300 
f 56/116/301 71/117/302 70/115/303 
f 70/115/304 54/114/305 56/116/306 
f 58/118/307 72/119/308 71/117/309 
f 71/117/310 56/116/311 58/118/312 
f 60/120/313 73/121/314 72/119/315 
f 72/119/316 58/118/317 60/120/318 
f 12/48/319 36/49/320 73/121/321 
f 73/121/322 60/120/323 12/48/324 
f 63/101/325 37/50/326 62/25/327 
f 64/103/328 37/50/329 63/101/330 
f 65/105/331 37/50/332 64/103/333 
f 66/107/334 37/50/335 65/105/336 
f 67/109/337 37/50/338 66/107/339 
f 68/111/340 37/50/341 67/109/342 
f 69/113/343 37/50/344 68/111/345 
f 70/115/346 37/50/347 69/113/348 
f 71/117/349 37/50/350 70/115/351 
f 72/119/352 37/50/353 71/117/354 
f 73/121/355 37/50/356 72/119/357 
f 36/49/358 37/50/359 73/121/360 
# 120 faces

