# 3ds Max Wavefront OBJ Exporter v0.97b - (c)2007 guruware
# File Created: 11.03.2015 18:07:19

#
# object Palace_Wall_LP
#

v  100.008545 118.551743 5.843803
v  0.000000 118.551743 5.843803
v  -100.008575 106.051758 5.843788
v  0.000000 106.051758 5.843803
v  -100.008575 118.551743 5.843788
v  100.008545 106.051758 5.843803
v  -100.008575 106.051758 -5.843811
v  0.000000 106.051758 -5.843811
v  100.008545 106.051758 -5.843811
v  -100.008575 -118.551743 -5.843811
v  0.000000 -118.551743 -5.843811
v  100.008545 -118.551743 -5.843811
v  -100.008575 93.476883 -5.843811
v  0.000000 93.476883 -5.843811
v  100.008545 93.476883 -5.843811
# 15 vertices

vn 0.000000 0.000000 1.000000
vn -0.000000 0.000000 1.000000
vn -0.000000 0.000000 1.000000
vn -0.000000 0.000000 1.000000
vn 0.000000 0.000000 1.000000
vn 0.000000 0.000000 1.000000
vn -0.000000 0.000000 1.000000
vn -0.000000 0.000000 1.000000
vn -0.000000 0.000000 1.000000
vn -0.000000 0.000000 1.000000
vn -0.000000 0.000000 1.000000
vn -0.000000 0.000000 1.000000
vn 0.000000 -1.000000 -0.000000
vn 0.000000 -1.000000 -0.000000
vn 0.000000 -1.000000 -0.000000
vn 0.000000 -1.000000 -0.000000
vn 0.000000 -1.000000 -0.000000
vn 0.000000 -1.000000 -0.000000
vn 0.000000 -1.000000 -0.000000
vn 0.000000 -1.000000 -0.000000
vn 0.000000 -1.000000 -0.000000
vn 0.000000 -1.000000 -0.000000
vn 0.000000 -1.000000 -0.000000
vn 0.000000 -1.000000 -0.000000
vn 0.000000 0.000000 1.000000
vn 0.000000 0.000000 1.000000
vn 0.000000 0.000000 1.000000
vn 0.000000 0.000000 1.000000
vn 0.000000 0.000000 1.000000
vn 0.000000 0.000000 1.000000
vn 0.000000 0.000000 1.000000
vn 0.000000 0.000000 1.000000
vn 0.000000 0.000000 1.000000
vn 0.000000 0.000000 1.000000
vn 0.000000 0.000000 1.000000
vn 0.000000 0.000000 1.000000
vn 0.000000 0.000000 1.000000
vn 0.000000 0.000000 1.000000
vn 0.000000 0.000000 1.000000
vn 0.000000 0.000000 1.000000
vn 0.000000 0.000000 1.000000
vn 0.000000 0.000000 1.000000
vn 0.000000 0.000000 1.000000
vn 0.000000 0.000000 1.000000
vn 0.000000 0.000000 1.000000
vn 0.000000 0.000000 1.000000
vn 0.000000 0.000000 1.000000
vn 0.000000 0.000000 1.000000
# 48 vertex normals

vt 0.954421 0.975163 0.000000
vt 0.500181 0.975163 0.000000
vt 0.500181 0.918388 0.000000
vt 0.954421 0.918388 0.000000
vt 0.045939 0.975163 0.000000
vt 0.500956 0.884156 0.000000
vt 0.046715 0.884156 0.000000
vt 0.045939 0.918388 0.000000
vt 0.046715 0.831071 0.000000
vt 0.500956 0.831071 0.000000
vt 0.955197 0.884156 0.000000
vt 0.955197 0.831071 0.000000
vt 0.504541 0.808951 0.000000
vt 0.157507 0.808951 0.000000
vt 0.157507 0.029565 0.000000
vt 0.504541 0.029565 0.000000
vt 0.851576 0.808951 0.000000
vt 0.851576 0.029565 0.000000
vt 0.157507 0.765315 0.000000
vt 0.504541 0.765315 0.000000
vt 0.851576 0.765315 0.000000
# 21 texture coords

g Palace_Wall_LP
s 1
f 1/1/1 2/2/2 4/3/3 
f 4/3/4 6/4/5 1/1/6 
f 5/5/7 3/8/8 4/3/9 
f 4/3/10 2/2/11 5/5/12 
s 2
f 4/6/13 3/7/14 7/9/15 
f 7/9/16 8/10/17 4/6/18 
f 6/11/19 4/6/20 8/10/21 
f 8/10/22 9/12/23 6/11/24 
s 1
f 7/14/25 13/19/26 14/20/27 
f 14/20/28 8/13/29 7/14/30 
f 8/13/31 14/20/32 15/21/33 
f 15/21/34 9/17/35 8/13/36 
f 10/15/37 11/16/38 14/20/39 
f 14/20/40 13/19/41 10/15/42 
f 11/16/43 12/18/44 15/21/45 
f 15/21/46 14/20/47 11/16/48 
# 16 faces

