# 3ds Max Wavefront OBJ Exporter v0.97b - (c)2007 guruware
# File Created: 05.03.2015 23:09:16

mtllib walls_modular.mtl

#
# object Box001
#

v  -8.3762 39.3701 35.4519
v  17.8705 39.3701 35.4519
v  17.8705 39.3701 -39.3435
v  -8.3762 39.3701 -39.3435
v  17.8705 0.0000 35.4519
v  17.8705 9.8425 35.4519
v  -8.3762 9.8425 35.4519
v  -8.3762 0.0000 35.4519
v  44.1172 0.0000 -39.3435
v  44.1172 9.8425 -39.3435
v  44.1172 9.8425 35.4519
v  44.1172 0.0000 35.4519
v  -8.3762 0.0000 -39.3435
v  -8.3762 9.8425 -39.3435
v  17.8705 9.8425 -39.3435
v  17.8705 0.0000 -39.3435
v  -29.2569 0.0000 10.5201
v  -29.2569 9.8425 10.5201
v  -29.2569 9.8425 -14.4117
v  -29.2569 0.0000 -14.4117
v  -34.6229 1.0000 33.5521
v  -34.6229 9.8425 33.5521
v  -34.6229 9.8425 12.4199
v  -34.6229 1.0000 12.4199
v  -34.6229 39.3701 -39.3435
v  -34.6229 29.5276 -39.3435
v  -34.6229 29.5276 -14.4117
v  -34.6229 39.3701 -14.4117
v  -8.3762 29.5276 35.4519
v  17.8705 29.5276 35.4519
v  44.1172 29.5276 -39.3435
v  44.1172 29.5276 35.4519
v  44.1172 19.6850 35.4519
v  44.1172 19.6850 -39.3435
v  17.8705 29.5276 -39.3435
v  -8.3762 29.5276 -39.3435
v  -34.6229 28.5276 10.5201
v  -34.6229 28.5276 -14.4117
v  -34.6229 20.6850 -16.3115
v  -34.6229 20.6850 12.4199
v  -34.6229 28.5276 33.5521
v  -34.6229 19.6850 33.5521
v  -34.6229 9.8425 -37.4437
v  -34.6229 9.8425 -16.3115
v  -34.6229 19.6850 -37.4437
v  -34.6229 9.8425 10.5201
v  -34.6229 0.0000 10.5201
v  -34.6229 19.6850 10.5201
v  -34.6229 19.6850 -14.4117
v  -29.2569 19.6850 -14.4117
v  -29.2569 19.6850 10.5201
v  -34.6229 9.8425 -14.4117
v  44.1172 39.3701 35.4519
v  44.1172 39.3701 -39.3435
v  -34.6229 39.3701 10.5201
v  -34.6229 39.3701 35.4519
v  -34.6229 19.6850 35.4519
v  -34.6229 9.8425 35.4519
v  -8.3762 19.6850 35.4519
v  -34.6229 0.0000 -39.3435
v  -34.6229 9.8425 -39.3435
v  17.8705 19.6850 -39.3435
v  -34.6229 29.5276 35.4519
v  17.8705 19.6850 35.4519
v  -34.6229 19.6850 -39.3435
v  -8.3762 19.6850 -39.3435
v  -34.6229 28.5276 -37.4437
v  -7.3762 19.6850 27.8062
v  16.8705 19.6850 27.8062
v  16.8705 28.5276 27.8062
v  -7.3762 28.5276 27.8062
v  16.8705 20.6850 -28.3223
v  -7.3762 20.6850 -28.3223
v  -7.3762 28.5276 -28.3223
v  16.8705 28.5276 -28.3223
v  -34.6229 29.5276 10.5201
v  -7.3762 10.8425 27.8062
v  16.8705 10.8425 27.8062
v  -7.3762 18.6850 -28.3223
v  16.8705 18.6850 -28.3223
v  16.8705 10.8425 -28.3223
v  -7.3762 10.8425 -28.3223
v  -34.6229 1.0000 -37.4437
v  -34.6229 1.0000 -16.3115
v  -34.6229 0.0000 -14.4117
v  -34.6229 0.0000 35.4519
v  -35.5053 0.0000 -14.4117
v  -35.5053 9.8425 -14.4117
v  -35.5053 9.8425 -16.3115
v  -35.5053 1.0000 -16.3115
v  -35.5053 19.6850 -14.4117
v  -35.5053 20.6850 -16.3115
v  -35.5053 19.6850 10.5201
v  -35.5053 20.6850 12.4199
v  -35.5053 9.8425 10.5201
v  -35.5053 9.8425 12.4199
v  -35.5053 0.0000 10.5201
v  -35.5053 1.0000 12.4199
v  -8.3762 19.6850 37.5535
v  -8.3762 9.8425 37.5535
v  -7.3762 10.8425 37.5535
v  -7.3762 19.6850 37.5535
v  17.8705 9.8425 37.5535
v  16.8705 10.8425 37.5535
v  17.8705 19.6850 37.5535
v  16.8705 19.6850 37.5535
v  17.8705 29.5276 37.5535
v  16.8705 28.5276 37.5535
v  -8.3762 29.5276 37.5535
v  -7.3762 28.5276 37.5535
v  -7.3762 19.6850 35.4519
v  -7.3762 10.8425 35.4519
v  16.8705 10.8425 35.4519
v  16.8705 19.6850 35.4519
v  16.8705 28.5276 35.4519
v  -7.3762 28.5276 35.4519
v  17.8705 19.6850 -40.6196
v  -8.3762 19.6850 -40.6196
v  -7.3762 20.6850 -40.6196
v  16.8705 20.6850 -40.6196
v  -8.3762 29.5276 -40.6196
v  -7.3762 28.5276 -40.6196
v  17.8705 29.5276 -40.6196
v  16.8705 28.5276 -40.6196
v  16.8705 18.6850 -40.6196
v  -7.3762 18.6850 -40.6196
v  17.8705 9.8425 -40.6196
v  16.8705 10.8425 -40.6196
v  -8.3762 9.8425 -40.6196
v  -7.3762 10.8425 -40.6196
v  16.8705 20.6850 -39.3435
v  -7.3762 20.6850 -39.3435
v  -7.3762 28.5276 -39.3435
v  16.8705 28.5276 -39.3435
v  -7.3762 18.6850 -39.3435
v  16.8705 18.6850 -39.3435
v  16.8705 10.8425 -39.3435
v  -7.3762 10.8425 -39.3435
# 138 vertices

vn 0.0000 1.0000 -0.0000
vn 0.0000 0.0000 1.0000
vn 1.0000 0.0000 -0.0000
vn 0.0000 0.0000 -1.0000
vn -1.0000 0.0000 -0.0000
vn 0.0000 -1.0000 -0.0000
vn 0.0000 -0.7071 0.7071
vn 0.0000 -0.7071 -0.7071
# 8 vertex normals

vt 0.3333 0.0000 0.0000
vt 0.6667 0.0000 0.0000
vt 0.6667 1.0000 0.0000
vt 0.3333 1.0000 0.0000
vt 0.6667 0.2500 0.0000
vt 0.3333 0.2500 0.0000
vt 1.0000 0.0000 0.0000
vt 1.0000 0.2500 0.0000
vt 0.0000 0.2500 0.0000
vt 0.0000 0.0000 0.0000
vt 0.0000 1.0000 0.0000
vt 0.0000 0.7500 0.0000
vt 0.3333 0.7500 0.0000
vt 0.6667 0.7500 0.0000
vt 1.0000 0.7500 0.0000
vt 0.0000 0.5000 0.0000
vt 1.0000 0.5000 0.0000
vt 0.3333 0.5000 0.0000
vt 0.6667 0.5000 0.0000
vt 1.0000 1.0000 0.0000
vt 0.0000 0.6667 0.0000
vt 0.0000 0.3333 0.0000
# 22 texture coords

g Box001
usemtl wire_115115115
s 4
f 1/1/1 2/2/1 3/3/1 4/4/1 
s 8
f 5/2/2 6/5/2 7/6/2 8/1/2 
s 16
f 9/7/3 10/8/3 11/9/3 12/10/3 
s 32
f 13/2/4 14/5/4 15/6/4 16/1/4 
s 64
f 17/2/5 18/5/5 19/6/5 20/1/5 
f 21/7/5 22/8/5 23/5/5 24/2/5 
f 25/11/5 26/12/5 27/13/5 28/4/5 
s 8
f 1/4/2 29/13/2 30/14/2 2/3/2 
s 16
f 31/15/3 32/12/3 33/16/3 34/17/3 
s 32
f 3/4/4 35/13/4 36/14/4 4/3/4 
s 64
f 37/14/5 38/13/5 39/18/5 40/19/5 
f 41/15/5 37/14/5 40/19/5 42/17/5 
f 43/9/5 44/6/5 39/18/5 45/16/5 
s off
f 46/5/4 18/5/4 17/2/4 47/2/4 
f 48/19/6 49/18/6 50/18/6 51/19/6 
f 52/6/2 19/6/2 50/18/2 49/18/2 
s 4
f 53/7/1 54/20/1 3/3/1 2/2/1 
f 4/4/1 25/11/1 28/21/1 1/1/1 
f 55/22/1 56/10/1 1/1/1 28/21/1 
s 8
f 12/7/2 11/8/2 6/5/2 5/2/2 
f 57/16/2 58/9/2 7/6/2 59/18/2 
s 32
f 60/7/4 61/8/4 14/5/4 13/2/4 
f 34/16/4 10/9/4 15/6/4 62/18/4 
s 8
f 56/11/2 63/12/2 29/13/2 1/4/2 
f 33/17/2 32/15/2 30/14/2 64/19/2 
s 32
f 54/11/4 31/12/4 35/13/4 3/4/4 
f 65/17/4 26/15/4 36/14/4 66/19/4 
s 64
f 45/16/5 39/18/5 38/13/5 67/12/5 
s 8
f 68/18/2 69/19/2 70/14/2 71/13/2 
s 16
f 54/20/3 53/11/3 32/12/3 31/15/3 
s 32
f 72/18/4 73/19/4 74/14/4 75/13/4 
s 64
f 55/3/5 28/4/5 27/13/5 76/14/5 
f 56/20/5 55/3/5 76/14/5 63/15/5 
s 8
f 57/16/2 59/18/2 29/13/2 63/12/2 
f 53/20/2 2/3/2 30/14/2 32/15/2 
s 32
f 34/16/4 62/18/4 35/13/4 31/12/4 
f 25/20/4 4/3/4 36/14/4 26/15/4 
s 8
f 69/19/2 68/18/2 77/6/2 78/5/2 
s 16
f 34/17/3 33/16/3 11/9/3 10/8/3 
s 32
f 79/19/4 80/18/4 81/6/4 82/5/4 
s 64
f 51/19/5 50/18/5 19/6/5 18/5/5 
f 42/17/5 40/19/5 23/5/5 22/8/5 
f 83/10/5 84/1/5 44/6/5 43/9/5 
s off
f 48/19/4 51/19/4 18/5/4 46/5/4 
f 85/1/2 20/1/2 19/6/2 52/6/2 
s 8
f 33/17/2 64/19/2 6/5/2 11/8/2 
f 86/10/2 8/1/2 7/6/2 58/9/2 
s 32
f 65/17/4 66/19/4 14/5/4 61/8/4 
f 9/10/4 16/1/4 15/6/4 10/9/4 
s off
f 60/10/5 85/1/5 84/1/5 83/10/5 
f 87/1/5 88/6/5 89/6/5 90/1/5 
f 88/6/5 91/18/5 92/18/5 89/6/5 
f 91/18/5 93/19/5 94/19/5 92/18/5 
f 93/19/5 95/5/5 96/5/5 94/19/5 
f 95/5/5 97/2/5 98/2/5 96/5/5 
f 47/2/5 86/7/5 21/7/5 24/2/5 
f 86/7/5 58/8/5 22/8/5 21/7/5 
f 58/8/5 57/17/5 42/17/5 22/8/5 
f 57/17/5 63/15/5 41/15/5 42/17/5 
f 63/15/5 76/14/5 37/14/5 41/15/5 
f 76/14/5 27/13/5 38/13/5 37/14/5 
f 27/13/5 26/12/5 67/12/5 38/13/5 
f 26/12/5 65/16/5 45/16/5 67/12/5 
f 65/16/5 61/9/5 43/9/5 45/16/5 
f 61/9/5 60/10/5 83/10/5 43/9/5 
f 46/5/4 47/2/4 97/2/4 95/5/4 
f 47/2/7 24/2/7 98/2/7 97/2/7 
f 24/2/2 23/5/2 96/5/2 98/2/2 
f 23/5/2 40/19/2 94/19/2 96/5/2 
f 40/19/1 39/18/1 92/18/1 94/19/1 
f 39/18/4 44/6/4 89/6/4 92/18/4 
f 44/6/4 84/1/4 90/1/4 89/6/4 
f 84/1/8 85/1/8 87/1/8 90/1/8 
f 85/1/2 52/6/2 88/6/2 87/1/2 
f 52/6/2 49/18/2 91/18/2 88/6/2 
f 49/18/6 48/19/6 93/19/6 91/18/6 
f 48/19/4 46/5/4 95/5/4 93/19/4 
f 99/18/2 100/6/2 101/6/2 102/18/2 
f 100/6/2 103/5/2 104/5/2 101/6/2 
f 103/5/2 105/19/2 106/19/2 104/5/2 
f 105/19/2 107/14/2 108/14/2 106/19/2 
f 107/14/2 109/13/2 110/13/2 108/14/2 
f 109/13/2 99/18/2 102/18/2 110/13/2 
f 111/18/3 112/6/3 77/6/3 68/18/3 
f 112/6/1 113/5/1 78/5/1 77/6/1 
f 113/5/5 114/19/5 69/19/5 78/5/5 
f 114/19/5 115/14/5 70/14/5 69/19/5 
f 115/14/6 116/13/6 71/13/6 70/14/6 
f 116/13/3 111/18/3 68/18/3 71/13/3 
f 59/18/5 7/6/5 100/6/5 99/18/5 
f 7/6/6 6/5/6 103/5/6 100/6/6 
f 6/5/3 64/19/3 105/19/3 103/5/3 
f 64/19/3 30/14/3 107/14/3 105/19/3 
f 30/14/1 29/13/1 109/13/1 107/14/1 
f 29/13/5 59/18/5 99/18/5 109/13/5 
f 112/6/3 111/18/3 102/18/3 101/6/3 
f 111/18/3 116/13/3 110/13/3 102/18/3 
f 116/13/6 115/14/6 108/14/6 110/13/6 
f 115/14/5 114/19/5 106/19/5 108/14/5 
f 114/19/5 113/5/5 104/5/5 106/19/5 
f 113/5/1 112/6/1 101/6/1 104/5/1 
f 117/18/4 118/19/4 119/19/4 120/18/4 
f 118/19/4 121/14/4 122/14/4 119/19/4 
f 121/14/4 123/13/4 124/13/4 122/14/4 
f 123/13/4 117/18/4 120/18/4 124/13/4 
f 118/19/4 117/18/4 125/18/4 126/19/4 
f 117/18/4 127/6/4 128/6/4 125/18/4 
f 127/6/4 129/5/4 130/5/4 128/6/4 
f 129/5/4 118/19/4 126/19/4 130/5/4 
f 131/18/1 132/19/1 73/19/1 72/18/1 
f 132/19/3 133/14/3 74/14/3 73/19/3 
f 133/14/6 134/13/6 75/13/6 74/14/6 
f 134/13/5 131/18/5 72/18/5 75/13/5 
f 135/19/6 136/18/6 80/18/6 79/19/6 
f 136/18/5 137/6/5 81/6/5 80/18/5 
f 137/6/1 138/5/1 82/5/1 81/6/1 
f 138/5/3 135/19/3 79/19/3 82/5/3 
f 62/18/3 15/6/3 127/6/3 117/18/3 
f 15/6/6 14/5/6 129/5/6 127/6/6 
f 14/5/5 66/19/5 118/19/5 129/5/5 
f 66/19/5 36/14/5 121/14/5 118/19/5 
f 36/14/1 35/13/1 123/13/1 121/14/1 
f 35/13/3 62/18/3 117/18/3 123/13/3 
f 132/19/1 131/18/1 120/18/1 119/19/1 
f 131/18/5 134/13/5 124/13/5 120/18/5 
f 134/13/6 133/14/6 122/14/6 124/13/6 
f 133/14/3 132/19/3 119/19/3 122/14/3 
f 136/18/6 135/19/6 126/19/6 125/18/6 
f 135/19/3 138/5/3 130/5/3 126/19/3 
f 138/5/1 137/6/1 128/6/1 130/5/1 
f 137/6/5 136/18/5 125/18/5 128/6/5 
# 131 polygons

