# 3ds Max Wavefront OBJ Exporter v0.97b - (c)2007 guruware
# File Created: 24.02.2015 21:07:09

mtllib Palace_Door.mtl

#
# object Palace_Door_LP01
#

v  -205.375076 -100.000000 -2.560471
v  -105.375076 -100.000000 -2.560471
v  -205.375076 100.000000 -2.560438
v  -105.375076 100.000000 -2.560438
v  -205.375076 -100.000000 2.849463
v  -105.375076 -100.000000 2.849463
v  -205.375076 100.000000 2.849495
v  -105.375076 100.000000 2.849495
v  -205.375076 78.121620 -2.560443
v  -205.375076 -92.762993 -2.560470
v  -105.375076 -79.037704 -2.560468
v  -105.375076 92.049667 -2.560441
v  -105.375076 -92.762985 2.849463
v  -105.375076 92.049667 2.849494
v  -205.375076 92.049660 2.849494
v  -205.375076 -92.762993 2.849463
v  -205.375076 92.049660 -2.560441
v  -205.375076 -79.037712 -2.560468
v  -105.375076 -92.762985 -2.560470
v  -105.375076 78.121628 -2.560443
v  -105.375076 -78.932098 2.849466
v  -105.375076 78.121628 2.849491
v  -205.375076 78.121620 2.849491
v  -205.375076 -78.932106 2.849466
v  -205.375076 78.121620 3.905829
v  -105.375076 78.121628 3.905829
v  -105.375076 92.049667 3.905832
v  -205.375076 92.049660 3.905832
v  -105.375076 -78.932098 3.905805
v  -205.375076 -78.932106 3.905805
v  -205.375076 -92.762993 3.905802
v  -105.375076 -92.762985 3.905802
v  -204.933075 78.563622 4.347830
v  -105.817078 78.563629 4.347830
v  -105.817078 91.607666 4.347833
v  -204.933075 91.607658 4.347833
v  -105.817078 -79.374100 4.347804
v  -204.933075 -79.374107 4.347804
v  -204.933075 -92.320992 4.347802
v  -105.817078 -92.320984 4.347802
v  -205.375076 -0.458047 -2.560454
v  -105.375076 -0.458039 -2.560454
v  -105.375076 -0.405237 2.849479
v  -205.375076 -0.405245 2.849479
v  -155.375076 100.000000 -2.560438
v  -155.375076 -100.000000 2.849463
v  -155.375076 100.000000 2.849495
v  -155.375076 -100.000000 -2.560471
v  -155.375076 78.121628 2.849491
v  -155.375076 -78.932098 2.849466
v  -155.375076 92.049667 2.849494
v  -155.375076 -92.762985 2.849463
v  -155.375076 78.563629 4.347830
v  -155.375076 91.607666 4.347833
v  -155.375076 -79.374100 4.347804
v  -155.375076 -92.320984 4.347802
v  -155.375076 78.121628 3.905829
v  -155.375076 92.049667 3.905832
v  -155.375076 -78.932098 3.905805
v  -155.375076 -92.762985 3.905802
v  -155.375076 -0.405241 2.849479
# 61 vertices

vn 0.000000 -0.000000 1.000000
vn 0.000000 -0.000000 1.000000
vn 0.000000 -0.000000 1.000000
vn 0.000000 -0.000000 1.000000
vn 0.000000 -0.000000 1.000000
vn 0.000000 -0.000000 1.000000
vn 1.000000 0.000000 -0.000000
vn 1.000000 0.000000 -0.000000
vn 1.000000 0.000000 -0.000000
vn 1.000000 0.000000 -0.000000
vn 1.000000 0.000000 -0.000000
vn 1.000000 0.000000 -0.000000
vn 0.000000 1.000000 0.000000
vn 0.000000 1.000000 0.000000
vn 0.000000 1.000000 0.000000
vn 0.000000 1.000000 0.000000
vn 0.000000 1.000000 0.000000
vn 0.000000 1.000000 0.000000
vn -1.000000 0.000000 -0.000000
vn -1.000000 0.000000 -0.000000
vn -1.000000 0.000000 -0.000000
vn -1.000000 0.000000 -0.000000
vn -1.000000 0.000000 -0.000000
vn -1.000000 0.000000 -0.000000
vn 0.000000 -1.000000 -0.000000
vn 0.000000 -1.000000 -0.000000
vn 0.000000 -1.000000 -0.000000
vn 0.000000 -1.000000 -0.000000
vn 0.000000 -1.000000 -0.000000
vn 0.000000 -1.000000 -0.000000
vn 0.000000 -0.000000 1.000000
vn 0.000000 -0.000000 1.000000
vn 0.000000 -0.000000 1.000000
vn 0.000000 -0.000000 1.000000
vn 0.000000 -0.000000 1.000000
vn 0.000000 -0.000000 1.000000
vn 0.000000 -0.000000 1.000000
vn 0.000000 -0.000000 1.000000
vn 0.000000 -0.000000 1.000000
vn 0.000000 -0.000000 1.000000
vn 0.000000 -0.000000 1.000000
vn 0.000000 -0.000000 1.000000
vn 1.000000 0.000000 -0.000000
vn 1.000000 0.000000 -0.000000
vn 1.000000 0.000000 -0.000000
vn 1.000000 0.000000 -0.000000
vn 1.000000 0.000000 -0.000000
vn 1.000000 0.000000 -0.000000
vn 1.000000 0.000000 -0.000000
vn 1.000000 0.000000 -0.000000
vn 1.000000 0.000000 -0.000000
vn 1.000000 0.000000 -0.000000
vn 1.000000 0.000000 -0.000000
vn 1.000000 0.000000 -0.000000
vn -1.000000 0.000000 -0.000000
vn -1.000000 0.000000 -0.000000
vn -1.000000 0.000000 -0.000000
vn -1.000000 0.000000 -0.000000
vn -1.000000 0.000000 -0.000000
vn -1.000000 0.000000 -0.000000
vn -1.000000 0.000000 -0.000000
vn -1.000000 0.000000 -0.000000
vn -1.000000 0.000000 -0.000000
vn -1.000000 0.000000 -0.000000
vn -1.000000 0.000000 -0.000000
vn -1.000000 0.000000 -0.000000
vn 0.000000 -0.000000 1.000000
vn 0.000000 -0.000000 1.000000
vn 0.000000 -0.000000 1.000000
vn 0.000000 -0.000000 1.000000
vn 0.000000 -0.000000 1.000000
vn 0.000000 -0.000000 1.000000
vn 0.000000 -0.000000 1.000000
vn 0.000000 -0.000000 1.000000
vn 0.000000 -0.000000 1.000000
vn 0.000000 -0.000000 1.000000
vn 0.000000 -0.000000 1.000000
vn 0.000000 -0.000000 1.000000
vn 1.000000 0.000000 -0.000000
vn 1.000000 0.000000 -0.000000
vn 1.000000 0.000000 -0.000000
vn 1.000000 0.000000 -0.000000
vn 1.000000 0.000000 -0.000000
vn 1.000000 0.000000 -0.000000
vn 1.000000 0.000000 -0.000000
vn 1.000000 0.000000 -0.000000
vn 1.000000 0.000000 -0.000000
vn 1.000000 0.000000 -0.000000
vn 1.000000 0.000000 -0.000000
vn 1.000000 0.000000 -0.000000
vn -1.000000 0.000000 -0.000000
vn -1.000000 0.000000 -0.000000
vn -1.000000 0.000000 -0.000000
vn -1.000000 0.000000 -0.000000
vn -1.000000 0.000000 -0.000000
vn -1.000000 0.000000 -0.000000
vn -1.000000 0.000000 -0.000000
vn -1.000000 0.000000 -0.000000
vn -1.000000 0.000000 -0.000000
vn -1.000000 0.000000 -0.000000
vn -1.000000 0.000000 -0.000000
vn -1.000000 0.000000 -0.000000
vn 0.000000 -1.000000 -0.000000
vn 0.000000 -1.000000 -0.000000
vn 0.000000 -1.000000 -0.000000
vn 0.000000 -1.000000 -0.000000
vn 0.000000 -1.000000 -0.000000
vn 0.000000 -1.000000 -0.000000
vn 1.000000 0.000000 -0.000000
vn 1.000000 0.000000 -0.000000
vn 1.000000 0.000000 -0.000000
vn 1.000000 0.000000 -0.000000
vn 1.000000 0.000000 -0.000000
vn 1.000000 0.000000 -0.000000
vn 0.000000 1.000000 0.000000
vn 0.000000 1.000000 0.000000
vn 0.000000 1.000000 0.000000
vn 0.000000 1.000000 0.000000
vn 0.000000 1.000000 0.000000
vn 0.000000 1.000000 0.000000
vn -1.000000 0.000000 -0.000000
vn -1.000000 0.000000 -0.000000
vn -1.000000 0.000000 -0.000000
vn -1.000000 0.000000 -0.000000
vn -1.000000 0.000000 -0.000000
vn -1.000000 0.000000 -0.000000
vn -0.000000 1.000000 0.000000
vn -0.000000 1.000000 0.000000
vn 0.000000 1.000000 0.000000
vn 0.000000 1.000000 0.000000
vn 0.000000 1.000000 0.000000
vn -0.000000 1.000000 0.000000
vn -1.000000 0.000000 -0.000000
vn -1.000000 0.000000 -0.000000
vn -1.000000 0.000000 -0.000000
vn -1.000000 0.000000 -0.000000
vn -1.000000 0.000000 -0.000000
vn -1.000000 0.000000 -0.000000
vn 0.000000 -1.000000 -0.000000
vn 0.000000 -1.000000 -0.000000
vn 0.000000 -1.000000 -0.000000
vn 0.000000 -1.000000 -0.000000
vn 0.000000 -1.000000 -0.000000
vn 0.000000 -1.000000 -0.000000
vn 1.000000 0.000000 -0.000000
vn 1.000000 0.000000 -0.000000
vn 1.000000 0.000000 -0.000000
vn 1.000000 0.000000 -0.000000
vn 1.000000 0.000000 -0.000000
vn 1.000000 0.000000 -0.000000
vn -0.408248 -0.408248 0.816497
vn -0.408248 -0.408248 0.816497
vn 0.000000 -0.707106 0.707107
vn 0.000000 -0.707106 0.707107
vn 0.000000 -0.707106 0.707107
vn -0.408248 -0.408248 0.816497
vn 0.408248 -0.408248 0.816497
vn 0.408248 -0.408248 0.816497
vn 0.408248 0.408248 0.816497
vn 0.408248 0.408248 0.816497
vn 0.408248 0.408248 0.816497
vn 0.408248 -0.408248 0.816497
vn 0.408248 0.408248 0.816497
vn 0.408248 0.408248 0.816497
vn -0.000000 0.707106 0.707108
vn -0.000000 0.707106 0.707108
vn -0.000000 0.707106 0.707108
vn 0.408248 0.408248 0.816497
vn -0.408248 0.408248 0.816497
vn -0.408248 0.408248 0.816497
vn -0.408248 -0.408248 0.816497
vn -0.408248 -0.408248 0.816497
vn -0.408248 -0.408248 0.816497
vn -0.408248 0.408248 0.816497
vn 0.408248 0.408248 0.816497
vn 0.408248 0.408248 0.816497
vn -0.000000 0.707106 0.707108
vn -0.000000 0.707106 0.707108
vn -0.000000 0.707106 0.707108
vn 0.408248 0.408248 0.816497
vn -0.408248 0.408248 0.816497
vn -0.408248 0.408248 0.816497
vn -0.408248 -0.408248 0.816497
vn -0.408248 -0.408248 0.816497
vn -0.408248 -0.408248 0.816497
vn -0.408248 0.408248 0.816497
vn -0.408248 -0.408248 0.816497
vn -0.408248 -0.408248 0.816497
vn 0.000000 -0.707106 0.707107
vn 0.000000 -0.707106 0.707107
vn 0.000000 -0.707106 0.707107
vn -0.408248 -0.408248 0.816497
vn 0.408248 -0.408248 0.816497
vn 0.408248 -0.408248 0.816497
vn 0.408248 0.408248 0.816497
vn 0.408248 0.408248 0.816497
vn 0.408248 0.408248 0.816497
vn 0.408248 -0.408248 0.816497
vn 0.000000 -0.000000 1.000000
vn 0.000000 -0.000000 1.000000
vn 0.000000 -0.000000 1.000000
vn 0.000000 -0.000000 1.000000
vn 0.000000 -0.000000 1.000000
vn 0.000000 -0.000000 1.000000
vn 1.000000 0.000000 -0.000000
vn 1.000000 0.000000 -0.000000
vn 1.000000 0.000000 -0.000000
vn 1.000000 0.000000 -0.000000
vn 1.000000 0.000000 -0.000000
vn 1.000000 0.000000 -0.000000
vn -1.000000 0.000000 -0.000000
vn -1.000000 0.000000 -0.000000
vn -1.000000 0.000000 -0.000000
vn -1.000000 0.000000 -0.000000
vn -1.000000 0.000000 -0.000000
vn -1.000000 0.000000 -0.000000
vn 0.000000 -0.000000 1.000000
vn 0.000000 -0.000000 1.000000
vn 0.000000 -0.000000 1.000000
vn 0.000000 -0.000000 1.000000
vn 0.000000 -0.000000 1.000000
vn 0.000000 -0.000000 1.000000
vn 0.000000 1.000000 0.000000
vn 0.000000 1.000000 0.000000
vn 0.000000 1.000000 0.000000
vn 0.000000 1.000000 0.000000
vn 0.000000 1.000000 0.000000
vn 0.000000 1.000000 0.000000
vn 0.000000 -1.000000 -0.000000
vn 0.000000 -1.000000 -0.000000
vn 0.000000 -1.000000 -0.000000
vn 0.000000 -1.000000 -0.000000
vn 0.000000 -1.000000 -0.000000
vn 0.000000 -1.000000 -0.000000
vn 0.000000 -0.000000 1.000000
vn 0.000000 -0.000000 1.000000
vn 0.000000 -0.000000 1.000000
vn 0.000000 -0.000000 1.000000
vn 0.000000 -0.000000 1.000000
vn 0.000000 -0.000000 1.000000
vn 0.000000 -0.000000 1.000000
vn 0.000000 -0.000000 1.000000
vn 0.000000 -0.000000 1.000000
vn 0.000000 -0.000000 1.000000
vn 0.000000 -0.000000 1.000000
vn 0.000000 -0.000000 1.000000
vn 0.000000 -0.000000 1.000000
vn 0.000000 -0.000000 1.000000
vn 0.000000 -0.000000 1.000000
vn 0.000000 -0.000000 1.000000
vn 0.000000 -0.000000 1.000000
vn 0.000000 -0.000000 1.000000
vn 0.000000 -0.000000 1.000000
vn 0.000000 -0.000000 1.000000
vn 0.000000 -0.000000 1.000000
vn 0.000000 -0.000000 1.000000
vn 0.000000 -0.000000 1.000000
vn 0.000000 -0.000000 1.000000
vn 0.000000 -1.000000 -0.000000
vn 0.000000 -1.000000 -0.000000
vn 0.000000 -1.000000 -0.000000
vn 0.000000 -1.000000 -0.000000
vn 0.000000 -1.000000 -0.000000
vn 0.000000 -1.000000 -0.000000
vn -0.000000 1.000000 0.000000
vn -0.000000 1.000000 0.000000
vn -0.000000 1.000000 0.000000
vn -0.000000 1.000000 0.000000
vn -0.000000 1.000000 0.000000
vn -0.000000 1.000000 0.000000
vn -0.000000 1.000000 0.000000
vn -0.000000 1.000000 0.000000
vn -0.000000 1.000000 0.000000
vn -0.000000 1.000000 0.000000
vn -0.000000 1.000000 0.000000
vn -0.000000 1.000000 0.000000
vn 0.000000 -1.000000 -0.000000
vn 0.000000 -1.000000 -0.000000
vn 0.000000 -1.000000 -0.000000
vn 0.000000 -1.000000 -0.000000
vn 0.000000 -1.000000 -0.000000
vn 0.000000 -1.000000 -0.000000
vn 0.000000 -0.707106 0.707107
vn 0.408248 -0.408248 0.816497
vn 0.408248 -0.408248 0.816497
vn 0.408248 -0.408248 0.816497
vn 0.000000 -0.707106 0.707107
vn 0.000000 -0.707106 0.707107
vn -0.000000 0.707106 0.707108
vn -0.408248 0.408248 0.816497
vn -0.408248 0.408248 0.816497
vn -0.408248 0.408248 0.816497
vn -0.000000 0.707106 0.707108
vn -0.000000 0.707106 0.707108
vn -0.000000 0.707106 0.707108
vn -0.408248 0.408248 0.816497
vn -0.408248 0.408248 0.816497
vn -0.408248 0.408248 0.816497
vn -0.000000 0.707106 0.707108
vn -0.000000 0.707106 0.707108
vn 0.000000 -0.707106 0.707107
vn 0.408248 -0.408248 0.816497
vn 0.408248 -0.408248 0.816497
vn 0.408248 -0.408248 0.816497
vn 0.000000 -0.707106 0.707107
vn 0.000000 -0.707106 0.707107
vn 0.000000 -0.000000 1.000000
vn 0.000000 -0.000000 1.000000
vn 0.000000 -0.000000 1.000000
vn 0.000000 -0.000000 1.000000
vn 0.000000 -0.000000 1.000000
vn 0.000000 -0.000000 1.000000
# 312 vertex normals

vt 0.606224 0.985167 0.000000
vt 0.567385 0.985167 0.000000
vt 0.010085 0.987299 0.000000
vt 0.010085 0.944631 0.000000
vt 0.867528 0.122441 0.000000
vt 0.867528 0.499739 0.000000
vt 0.828434 0.499992 0.000000
vt 0.828434 0.122948 0.000000
vt 0.672118 0.491727 0.000000
vt 0.709823 0.491727 0.000000
vt 0.709823 0.740641 0.000000
vt 0.672118 0.740641 0.000000
vt 0.913713 0.128426 0.000000
vt 0.913713 0.505725 0.000000
vt 0.874620 0.505471 0.000000
vt 0.874619 0.128426 0.000000
vt 0.709823 0.989555 0.000000
vt 0.672118 0.989555 0.000000
vt 0.722438 0.490139 0.000000
vt 0.760143 0.490139 0.000000
vt 0.760143 0.739053 0.000000
vt 0.722438 0.739053 0.000000
vt 0.760143 0.987968 0.000000
vt 0.722438 0.987968 0.000000
vt 0.867528 0.943912 0.000000
vt 0.867528 0.982085 0.000000
vt 0.828435 0.982085 0.000000
vt 0.828435 0.943912 0.000000
vt 0.828434 0.056539 0.000000
vt 0.828434 0.021790 0.000000
vt 0.867528 0.021790 0.000000
vt 0.867527 0.056539 0.000000
vt 0.867528 0.877037 0.000000
vt 0.828435 0.877037 0.000000
vt 0.913713 0.948925 0.000000
vt 0.913713 0.983674 0.000000
vt 0.874620 0.983674 0.000000
vt 0.874620 0.948925 0.000000
vt 0.874619 0.061551 0.000000
vt 0.874619 0.023377 0.000000
vt 0.913713 0.023377 0.000000
vt 0.913713 0.061551 0.000000
vt 0.913713 0.883024 0.000000
vt 0.874620 0.882516 0.000000
vt 0.547808 0.014987 0.000000
vt 0.547808 0.436423 0.000000
vt 0.279469 0.436423 0.000000
vt 0.279469 0.014987 0.000000
vt 0.547808 0.857860 0.000000
vt 0.279469 0.857860 0.000000
vt 0.011130 0.436423 0.000000
vt 0.011130 0.014987 0.000000
vt 0.011130 0.857859 0.000000
vt 0.278424 0.944631 0.000000
vt 0.278424 0.987299 0.000000
vt 0.546763 0.944631 0.000000
vt 0.546763 0.987299 0.000000
vt 0.567385 0.716827 0.000000
vt 0.774830 0.988550 0.000000
vt 0.617710 0.917621 0.000000
vt 0.710771 0.353151 0.000000
vt 0.710771 0.232743 0.000000
vt 0.617709 0.485371 0.000000
vt 0.774830 0.556298 0.000000
vt 0.712173 0.185559 0.000000
vt 0.712173 0.065151 0.000000
vt 0.606224 0.716827 0.000000
vt 0.567385 0.448488 0.000000
vt 0.606224 0.448488 0.000000
vt 0.011672 0.935298 0.000000
vt 0.645698 0.917621 0.000000
vt 0.719903 0.232743 0.000000
vt 0.805375 0.990626 0.000000
vt 0.719903 0.353151 0.000000
vt 0.805375 0.558377 0.000000
vt 0.721305 0.065151 0.000000
vt 0.645698 0.485372 0.000000
vt 0.721305 0.185559 0.000000
vt 0.725307 0.349330 0.000000
vt 0.725307 0.236565 0.000000
vt 0.576033 0.413288 0.000000
vt 0.576799 0.256532 0.000000
vt 0.571395 0.260353 0.000000
vt 0.570629 0.417109 0.000000
vt 0.726709 0.181738 0.000000
vt 0.726709 0.068973 0.000000
vt 0.570629 0.297542 0.000000
vt 0.571395 0.140785 0.000000
vt 0.576799 0.144606 0.000000
vt 0.576033 0.301363 0.000000
vt 0.011672 0.865294 0.000000
vt 0.277639 0.865294 0.000000
vt 0.277639 0.935298 0.000000
vt 0.543606 0.865294 0.000000
vt 0.543606 0.935298 0.000000
vt 0.923038 0.460648 0.000000
vt 0.992521 0.460648 0.000000
vt 0.992521 0.726615 0.000000
vt 0.923038 0.726615 0.000000
vt 0.992521 0.992582 0.000000
vt 0.923038 0.992582 0.000000
vt 0.626841 0.485371 0.000000
vt 0.814507 0.558377 0.000000
vt 0.654830 0.485372 0.000000
vt 0.626841 0.917621 0.000000
vt 0.783962 0.556298 0.000000
vt 0.819911 0.986805 0.000000
vt 0.814507 0.990626 0.000000
vt 0.660234 0.913799 0.000000
vt 0.654830 0.917620 0.000000
vt 0.819911 0.558377 0.000000
vt 0.660234 0.485372 0.000000
vt 0.617710 0.053121 0.000000
vt 0.626842 0.053121 0.000000
vt 0.805375 0.126129 0.000000
vt 0.814507 0.126129 0.000000
vt 0.632245 0.913799 0.000000
vt 0.632245 0.485371 0.000000
vt 0.819911 0.129950 0.000000
vt 0.632246 0.056942 0.000000
vt 0.645698 0.053123 0.000000
vt 0.654830 0.053123 0.000000
vt 0.783961 0.988550 0.000000
vt 0.774830 0.124046 0.000000
vt 0.783962 0.124046 0.000000
vt 0.789365 0.984729 0.000000
vt 0.789365 0.556298 0.000000
vt 0.660234 0.056944 0.000000
vt 0.789365 0.127868 0.000000
vt 0.561497 0.417109 0.000000
vt 0.561497 0.297542 0.000000
vt 0.562263 0.260353 0.000000
vt 0.562263 0.140785 0.000000
# 133 texture coords

g Palace_Door_LP01
usemtl Material__217
s 1
f 43/46/1 61/47/2 50/48/3 
f 50/48/4 21/45/5 43/46/6 
s 32
f 42/6/7 43/7/8 21/8/9 
f 21/8/10 11/5/11 42/6/12 
s 16
f 7/10/13 47/11/14 45/12/15 
f 45/12/16 3/9/17 7/10/18 
s 32
f 41/14/19 44/15/20 23/16/21 
f 23/16/22 9/13/23 41/14/24 
s 16
f 6/20/25 46/21/26 48/22/27 
f 48/22/28 2/19/29 6/20/30 
s 1
f 8/4/31 47/54/32 51/55/33 
f 51/55/34 14/3/35 8/4/36 
f 5/2/37 46/58/38 52/67/39 
f 52/67/40 16/1/41 5/2/42 
s 32
f 4/26/43 8/27/44 14/28/45 
f 14/28/46 12/25/47 4/26/48 
f 6/30/49 2/31/50 19/32/51 
f 19/32/52 13/29/53 6/30/54 
f 1/36/55 5/37/56 16/38/57 
f 16/38/58 10/35/59 1/36/60 
f 7/40/61 3/41/62 17/42/63 
f 17/42/64 15/39/65 7/40/66 
s 2
f 35/91/67 54/92/68 53/93/69 
f 53/93/70 34/70/71 35/91/72 
f 39/97/73 56/98/74 55/99/75 
f 55/99/76 38/96/77 39/97/78 
s 32
f 20/33/79 12/25/80 14/28/81 
f 14/28/82 22/34/83 20/33/84 
f 21/8/85 13/29/86 19/32/87 
f 19/32/88 11/5/89 21/8/90 
f 18/43/91 10/35/92 16/38/93 
f 16/38/94 24/44/95 18/43/96 
f 23/16/97 15/39/98 17/42/99 
f 17/42/100 9/13/101 23/16/102 
s 8
f 49/75/103 57/103/104 25/108/105 
f 25/108/106 23/73/107 49/75/108 
s 16
f 22/61/109 14/62/110 27/72/111 
f 27/72/112 26/74/113 22/61/114 
s off
f 51/63/115 58/102/116 27/105/117 
f 27/105/118 14/60/119 51/63/120 
s 16
f 15/65/121 23/66/122 25/76/123 
f 25/76/124 28/78/125 15/65/126 
s 8
f 50/77/127 59/104/128 29/110/129 
f 29/110/130 21/71/131 50/77/132 
s 16
f 24/132/133 16/133/134 31/88/135 
f 31/88/136 30/83/137 24/132/138 
s 8
f 52/64/139 60/106/140 31/123/141 
f 31/123/142 16/59/143 52/64/144 
s 16
f 13/130/145 21/131/146 29/87/147 
f 29/87/148 32/84/149 13/130/150 
s 4
f 33/107/151 25/108/152 57/103/153 
f 57/103/154 53/111/155 33/107/156 
f 34/79/157 26/74/158 27/72/159 
f 27/72/160 35/80/161 34/79/162 
f 35/117/163 27/105/164 58/102/165 
f 58/102/166 54/118/167 35/117/168 
f 36/85/169 28/78/170 25/76/171 
f 25/76/172 33/86/173 36/85/174 
f 37/109/175 29/110/176 59/104/177 
f 59/104/178 55/112/179 37/109/180 
f 38/82/181 30/83/182 31/88/183 
f 31/88/184 39/89/185 38/82/186 
f 39/126/187 31/123/188 60/106/189 
f 60/106/190 56/127/191 39/126/192 
f 40/81/193 32/84/194 29/87/195 
f 29/87/196 37/90/197 40/81/198 
s 1
f 22/49/199 49/50/200 61/47/201 
f 61/47/202 43/46/203 22/49/204 
s 32
f 20/33/205 22/34/206 43/7/207 
f 43/7/208 42/6/209 20/33/210 
f 18/43/211 24/44/212 44/15/213 
f 44/15/214 41/14/215 18/43/216 
s 1
f 44/51/217 24/52/218 50/48/219 
f 50/48/220 61/47/221 44/51/222 
s 16
f 8/17/223 4/18/224 45/12/225 
f 45/12/226 47/11/227 8/17/228 
f 5/23/229 1/24/230 48/22/231 
f 48/22/232 46/21/233 5/23/234 
s 1
f 7/56/235 15/57/236 51/55/237 
f 51/55/238 47/54/239 7/56/240 
f 6/68/241 13/69/242 52/67/243 
f 52/67/244 46/58/245 6/68/246 
s 2
f 36/94/247 33/95/248 53/93/249 
f 53/93/250 54/92/251 36/94/252 
f 40/100/253 37/101/254 55/99/255 
f 55/99/256 56/98/257 40/100/258 
s 8
f 22/115/259 26/116/260 57/103/261 
f 57/103/262 49/75/263 22/115/264 
f 15/113/265 28/114/266 58/102/267 
f 58/102/268 51/63/269 15/113/270 
f 24/121/271 30/122/272 59/104/273 
f 59/104/274 50/77/275 24/121/276 
f 13/124/277 32/125/278 60/106/279 
f 60/106/280 52/64/281 13/124/282 
s 4
f 57/103/283 26/116/284 34/119/285 
f 34/119/286 53/111/287 57/103/288 
f 58/102/289 28/114/290 36/120/291 
f 36/120/292 54/118/293 58/102/294 
f 59/104/295 30/122/296 38/128/297 
f 38/128/298 55/112/299 59/104/300 
f 60/106/301 32/125/302 40/129/303 
f 40/129/304 56/127/305 60/106/306 
s 1
f 23/53/307 44/51/308 61/47/309 
f 61/47/310 49/50/311 23/53/312 
# 104 faces

